<svg width="1920" height="3500" viewBox="0 0 1920 3500" fill="none" xmlns="http://www.w3.org/2000/svg">
<g clip-path="url(#clip0_205_237)">
<g clip-path="url(#clip1_205_237)">
<path d="M104.187 -5.07376C-40.6936 8.67579 -118.655 181.26 -22.7025 299.131C21.6248 353.812 95.6835 380.866 168.695 362.036C207.819 351.938 241.612 329.583 265.695 300.465C370.881 173.924 271.819 -21.0779 104.187 -5.07376Z" fill="url(#paint0_radial_205_237)" fill-opacity="0.3"/>
<path d="M-7.31324 245.149C-8.29688 243.181 -9.24879 241.148 -10.1372 239.116C-16.7054 224.287 -20.8304 208.187 -22.0678 191.262C-22.0678 191.167 -22.0679 191.104 -22.0996 191.008C-19.1804 190.627 -15.1824 191.961 -12.2632 200.185C-8.48725 210.887 9.09137 236.957 -7.31324 245.149Z" fill="#4BCDA6" fill-opacity="0.3"/>
<path d="M106.155 220.572C105.965 221.747 105.552 222.858 104.949 223.874C100.348 232.13 84.3246 236.195 66.4604 233.115C50.9125 230.415 38.5059 223.048 34.5079 215.046C33.3338 212.697 32.8897 210.315 33.3021 207.934C35.1108 197.518 52.5942 195.01 72.7113 198.534C92.8283 201.995 107.964 210.156 106.155 220.572Z" fill="#4BCDA6" fill-opacity="0.3"/>
<path d="M63.3503 151.728L63.3185 151.76C59.3205 157.793 46.8505 152.268 32.3497 142.773C20.5143 135.025 12.074 127.309 11.5028 121.435C11.3759 120.101 11.6615 118.831 12.3913 117.688C16.3893 111.591 32.2545 111.178 46.787 120.704C61.3195 130.231 67.3483 145.631 63.3503 151.728Z" fill="#4BCDA6" fill-opacity="0.3"/>
<path d="M223.398 240.767C211.69 250.547 197.665 253.056 192.112 246.356C191.826 246.007 191.573 245.657 191.351 245.276C187.099 238.322 192.176 225.843 203.281 216.602C214.577 207.171 227.999 204.504 233.933 210.315C234.155 210.537 234.377 210.759 234.567 210.982C240.12 217.682 235.138 231.019 223.398 240.767Z" fill="#4BCDA6" fill-opacity="0.3"/>
<path d="M138.932 160.588C127.097 169.955 115.071 175.131 108.186 166.431C107.519 165.605 106.98 164.716 106.504 163.763C102.125 154.936 106.441 142.139 117.165 133.66C129.001 124.293 145.152 119.879 156.162 133.819C156.226 133.914 156.321 134.01 156.352 134.105C162.825 142.71 150.673 151.316 138.932 160.588Z" fill="#4BCDA6" fill-opacity="0.3"/>
<path d="M91.6531 291.415C89.9397 293.066 86.5445 293.987 81.2138 293.733C61.6679 292.876 40.4402 269.06 46.3738 261.407C46.469 261.28 46.5642 261.185 46.6594 261.09C52.8151 254.135 68.236 266.647 76.1052 270.775C89.0829 277.57 96.1905 287.065 91.6531 291.415Z" fill="#4BCDA6" fill-opacity="0.3"/>
<path d="M168.314 273.855C168.346 278.364 162.222 283.127 152.576 283.54C134.934 284.302 124.875 280.904 122.496 274.617C122.242 273.95 122.083 273.252 121.988 272.489C121.131 264.837 137.282 266.139 145.786 265.694C161.746 264.837 168.282 269.219 168.314 273.855Z" fill="#4BCDA6" fill-opacity="0.3"/>
<path d="M221.779 172.401C219.844 175.29 216.1 177.259 211.245 177.259C195.951 177.259 175.548 166.209 178.118 155.984C178.404 154.809 178.848 153.793 179.356 152.967C183.29 146.616 193.222 149.697 202.773 151.729C221.875 155.793 225.968 166.209 221.779 172.401Z" fill="#4BCDA6" fill-opacity="0.3"/>
<path d="M172.121 97.302C171.931 96.8575 171.836 96.3494 171.772 95.8096C171.392 91.4593 175.675 85.1084 184.02 82.8221C189.446 81.3297 196.776 81.5202 201.313 84.3146C203.312 85.553 204.74 87.2677 205.28 89.6175C206.549 95.4603 174.819 104.066 172.121 97.302Z" fill="#4BCDA6" fill-opacity="0.3"/>
<path d="M84.927 83.7746C83.8481 84.4096 82.5789 84.2191 81.2145 82.8537C71.854 73.4862 71.029 58.1807 76.1059 55.6404C78.1049 54.6242 79.8501 54.3067 81.3415 54.4655C91.4952 55.6086 90.3846 80.4721 84.927 83.7746Z" fill="#4BCDA6" fill-opacity="0.3"/>
<path d="M245.197 137.28C244.53 137.598 243.737 137.661 242.88 137.439C239.327 136.518 234.694 131.057 233.298 122.832C232.505 118.006 234.916 113.369 238.057 111.909C241.548 110.258 245.958 112.544 247.735 122.832C248.782 128.675 248.624 135.566 245.197 137.28Z" fill="#4BCDA6" fill-opacity="0.3"/>
<path d="M228.031 278.84C217.084 290.685 204.169 300.687 189.827 308.308C188.209 307.514 186.75 306.339 186.178 304.657C185.671 303.164 185.893 301.259 187.448 298.846C193.381 289.478 199.346 275.03 212.927 274.173C216.893 273.919 220.035 274.395 222.541 275.284C224.953 276.173 226.73 277.443 228.031 278.84Z" fill="#4BCDA6" fill-opacity="0.3"/>
<path d="M160.128 320.121C147.975 323.455 135.188 325.201 121.988 325.201C115.928 325.201 109.962 324.82 104.124 324.09C104.124 322.375 104.441 320.534 105.488 318.978C106.504 317.485 108.186 316.278 110.946 315.834C121.132 314.119 126.24 307.324 140.677 308.181C148.166 308.626 153.401 312.277 156.67 315.675C158.288 317.39 159.398 318.978 160.128 320.121Z" fill="#4BCDA6" fill-opacity="0.3"/>
<path d="M141.66 56.6883C140.93 60.3082 134.807 61.6102 131.856 60.2447C131.221 59.9589 130.745 59.5461 130.491 59.0381C128.778 55.6404 139.979 49.2895 141.533 54.783C141.724 55.4816 141.755 56.1167 141.66 56.6883Z" fill="#4BCDA6" fill-opacity="0.3"/>
<g opacity="0.3">
<path d="M159.874 220.698C159.493 222.159 159.017 223.588 158.541 224.858C156.066 231.495 141.439 234.099 137.567 231.05C137.472 230.987 137.377 230.892 137.282 230.796C133.887 227.399 137.187 218.857 138.995 214.633C141.534 208.695 154.289 204.44 158.541 206.123C161.968 207.552 161.524 214.506 159.874 220.698Z" fill="#41F7C0"/>
<path d="M11.5028 121.467C11.3759 120.133 11.6615 118.863 12.3913 117.72C16.3893 111.623 32.2545 111.21 46.787 120.737C61.3195 130.263 67.3483 145.664 63.3503 151.76L63.3185 151.792C63.5406 148.077 61.9859 142.869 56.56 135.598C42.4082 116.704 16.6114 110.194 11.5028 121.467Z" fill="#37E27B"/>
<path d="M106.155 220.571C105.965 221.746 105.552 222.858 104.949 223.874C104.6 222.413 101.459 210.95 87.1486 206.155C72.2988 201.201 52.3086 196.787 40.4097 206.155C36.6021 209.14 34.9838 212.22 34.5079 215.014C33.3338 212.664 32.8897 210.283 33.3021 207.901C35.1108 197.486 52.5942 194.977 72.7113 198.502C92.8283 201.995 107.964 210.156 106.155 220.571Z" fill="#37E27B"/>
<path d="M129.635 131.31C113.834 136.772 107.17 152.268 106.504 163.763C102.125 154.936 106.441 142.139 117.165 133.66C129.001 124.293 145.152 119.879 156.162 133.819C156.226 133.914 156.321 134.01 156.352 134.105C151.593 130.421 142.93 126.738 129.635 131.31Z" fill="#37E27B"/>
<path d="M159.874 220.698C159.716 214.538 158.193 207.584 151.751 209.553C145.151 211.585 137.663 223.556 137.6 231.05C137.504 230.987 137.409 230.892 137.314 230.796C133.919 227.399 137.219 218.857 139.028 214.633C141.566 208.695 154.322 204.44 158.574 206.123C161.969 207.552 161.524 214.506 159.874 220.698Z" fill="#37E27B"/>
<path d="M221.78 172.401C223.716 161.192 205.757 157.572 196.777 154.301C187.892 151.062 181.8 152.205 179.325 152.967C183.26 146.616 193.191 149.697 202.742 151.729C221.876 155.793 225.969 166.209 221.78 172.401Z" fill="#37E27B"/>
<path d="M172.123 97.3019C171.932 96.8573 171.837 96.3493 171.773 95.8094C177.136 99.3659 190.875 96.4763 198.459 93.0468C203.885 90.57 202.996 86.95 201.314 84.3462C203.313 85.5846 204.741 87.2993 205.281 89.6491C206.55 95.4601 174.82 104.066 172.123 97.3019Z" fill="#37E27B"/>
<path d="M84.927 83.7746C83.8481 84.4096 82.5789 84.2191 81.2145 82.8537C71.854 73.4862 71.029 58.1807 76.1059 55.6404C78.1049 54.6242 79.8501 54.3067 81.3415 54.4655C79.279 54.8465 76.1059 56.6565 76.1059 64.1505C76.1059 72.7876 80.2626 79.8688 84.927 83.7746Z" fill="#37E27B"/>
<path d="M141.66 56.6883C141.375 55.2276 140.232 53.8304 136.457 54.783C133.379 55.5451 132.205 57.8949 131.856 60.2447C131.221 59.9589 130.745 59.5461 130.491 59.0381C128.778 55.6404 139.979 49.2895 141.533 54.783C141.724 55.4816 141.755 56.1167 141.66 56.6883Z" fill="#37E27B"/>
<path d="M91.6539 291.415C90.9241 286.842 86.7357 282.397 79.5011 278.427C70.1407 273.315 63.3503 268.234 57.4168 263.979C54.3072 261.756 50.0236 261.153 46.6602 261.09C52.8159 254.135 68.2368 266.647 76.1059 270.775C89.0837 277.57 96.1913 287.065 91.6539 291.415Z" fill="#37E27B"/>
<path d="M168.314 273.855C166.95 270.457 162.825 269.06 155.971 269.06H132.173C123.067 269.06 122.496 274.331 122.496 274.585C122.242 273.918 122.083 273.22 121.988 272.458C121.131 264.805 137.282 266.107 145.786 265.662C161.746 264.837 168.283 269.219 168.314 273.855Z" fill="#37E27B"/>
<path d="M156.67 315.707C158.288 317.358 159.398 318.977 160.128 320.121C147.975 323.455 135.188 325.201 121.988 325.201C115.928 325.201 109.962 324.82 104.124 324.09C104.124 322.375 104.441 320.533 105.488 318.977C133.728 325.646 150.006 319.454 156.67 315.707Z" fill="#37E27B"/>
<path d="M228.031 278.841C217.084 290.685 204.17 300.687 189.828 308.308C188.209 307.515 186.75 306.34 186.179 304.657C209.881 295.766 220.13 279.666 222.542 275.316C224.953 276.173 226.73 277.443 228.031 278.841Z" fill="#37E27B"/>
<path d="M233.933 210.315C232.029 209.648 218.48 205.869 202.71 224.001C194.746 233.178 191.985 240.291 191.351 245.276C187.099 238.322 192.176 225.843 203.281 216.602C214.577 207.203 227.999 204.504 233.933 210.315Z" fill="#37E27B"/>
<path d="M242.88 137.407C239.327 136.486 234.694 131.025 233.298 122.8C232.505 117.974 234.916 113.338 238.057 111.877C236.693 113.687 235.424 116.45 235.836 120.26C236.566 126.42 238.882 132.581 242.88 137.407Z" fill="#37E27B"/>
<path d="M-7.31324 245.149C-8.29688 243.181 -9.24879 241.148 -10.1372 239.116C-6.07575 235.433 -2.07772 228.701 -7.15458 218.063C-13.4372 204.885 -16.4833 193.549 -22.0678 191.262C-22.0678 191.167 -22.0679 191.104 -22.0996 191.008C-19.1804 190.627 -15.1824 191.961 -12.2632 200.185C-8.48725 210.887 9.09137 236.957 -7.31324 245.149Z" fill="#37E27B"/>
</g>
<path opacity="0.35" d="M266.456 180.656C266.456 189.103 265.727 197.39 264.33 205.424C259.476 233.495 246.53 258.803 227.999 278.84C217.052 290.684 204.138 300.687 189.796 308.308C180.467 313.293 170.535 317.262 160.128 320.12C147.975 323.454 135.188 325.201 121.988 325.201C115.927 325.201 109.962 324.82 104.124 324.09C55.1955 318.056 13.8191 287.509 -7.31335 245.117C-15.5632 228.605 -20.7353 210.314 -22.0997 190.976C-22.3536 187.547 -22.4805 184.085 -22.4805 180.624C-22.4805 158.809 -17.6574 138.137 -9.02677 119.593C-7.63063 244.799 250.718 276.268 257.635 130.77C262.68 144.552 265.695 159.285 266.33 174.686C266.425 176.687 266.456 178.656 266.456 180.656Z" fill="url(#paint1_linear_205_237)"/>
<path opacity="0.45" d="M209.436 295.734C203.281 300.433 196.713 304.656 189.827 308.34C180.498 313.325 170.567 317.295 160.159 320.152C148.006 323.487 135.219 325.233 122.019 325.233C115.959 325.233 109.993 324.852 104.155 324.122C55.2268 318.088 13.8503 287.541 -7.2821 245.149C-15.532 228.637 -20.704 210.347 -22.0684 191.008C-22.3223 187.579 -22.4492 184.118 -22.4492 180.656C-22.4492 158.841 -17.6262 138.169 -8.99552 119.625C-1.28504 103.049 9.50328 88.1883 22.5762 75.7725C-17.7214 268.107 130.491 294.749 209.436 295.734Z" fill="url(#paint2_linear_205_237)"/>
<path d="M266.457 180.656C266.457 189.103 265.727 197.391 264.331 205.424C263.569 209.743 262.649 213.998 261.538 218.19C256.525 101.906 177.834 35.7938 64.2705 48.0827C81.9443 40.3664 101.49 36.0796 121.988 36.0796C184.275 36.0796 237.36 75.5183 257.635 130.834C262.681 144.615 265.695 159.349 266.33 174.75C266.425 176.687 266.457 178.656 266.457 180.656Z" fill="url(#paint3_linear_205_237)"/>
</g>
<g opacity="0.75" clip-path="url(#clip2_205_237)">
<path d="M1492.43 271.179C1308.81 288.664 1209.99 508.327 1331.62 658.346C1387.8 727.924 1481.65 762.365 1574.18 738.422C1623.74 725.573 1666.58 697.092 1697.13 660.035C1830.42 498.988 1704.87 250.812 1492.43 271.179Z" fill="url(#paint4_radial_205_237)" fill-opacity="0.3"/>
<path d="M1698.12 507.996C1698.12 523.461 1696.2 538.463 1692.65 552.803C1601.2 513.394 1443.95 585.919 1337.61 553.631C1333.89 539.026 1331.91 523.726 1331.91 507.963C1331.91 498.26 1332.67 488.755 1334.09 479.482C1520.96 546.047 1588.91 453.42 1694.75 472.793C1696.96 484.185 1698.12 495.975 1698.12 507.996Z" fill="url(#paint5_linear_205_237)"/>
<path d="M1687.44 445.902C1587.86 429.046 1471.96 498.061 1338.96 457.361C1340.94 450.373 1343.35 443.518 1346.12 436.894C1454.07 479.118 1584.23 425.337 1684.34 437.822C1685.43 440.504 1686.48 443.187 1687.44 445.902Z" fill="url(#paint6_linear_205_237)"/>
<path d="M1647.63 381.126C1542.91 446.068 1410.64 416.362 1364.7 402.95C1369.18 396.492 1374.06 390.332 1379.3 384.504C1510.06 417.985 1591.71 377.351 1621.14 358.044C1630.69 364.866 1639.56 372.615 1647.63 381.126Z" fill="url(#paint7_linear_205_237)"/>
<path d="M1593.03 341.485C1549.01 370.098 1489.39 350.957 1412.68 355.394C1421.22 349.599 1430.24 344.532 1439.7 340.227C1486.13 342.247 1551.67 357.746 1585.81 338.24C1588.25 339.267 1590.66 340.359 1593.03 341.485Z" fill="url(#paint8_linear_205_237)"/>
<path d="M1565.81 331.153C1553.42 337.213 1530.42 342.38 1497.57 324.828C1503.33 324.265 1509.17 324 1515.06 324C1532.66 324 1549.66 326.484 1565.81 331.153Z" fill="url(#paint9_linear_205_237)"/>
<path d="M1678.51 590.92C1676.57 594.762 1674.49 598.537 1672.31 602.246C1593.66 566.447 1448.47 606.253 1352.61 593.007C1351.22 590.357 1349.91 587.642 1348.65 584.893C1474.3 600.491 1610.56 549.061 1678.51 590.92Z" fill="url(#paint10_linear_205_237)"/>
<path d="M1566.31 684.673C1562.32 685.832 1558.3 686.859 1554.21 687.753C1520.4 682.223 1415.94 622.712 1382.89 635.363C1378.94 631.223 1375.18 626.885 1371.62 622.381C1445.04 621.652 1522.58 681.163 1566.31 684.673Z" fill="url(#paint11_linear_205_237)"/>
<path d="M1651.06 631.19C1633.69 650.563 1612.27 666.194 1588.19 676.759C1553.65 666.261 1533.72 645.728 1521.65 639.933C1504.03 631.422 1498.72 624.633 1566.64 619.533C1601.24 616.884 1630.6 623.805 1651.06 631.19Z" fill="url(#paint12_linear_205_237)"/>
<path opacity="0.45" d="M1695.58 538.828C1683.48 611.618 1627.86 671.592 1554.24 687.786C1423.52 716.366 1307.89 599.398 1336.1 468.951C1351.26 497.763 1384.97 528.495 1458.52 539.954C1569.83 557.24 1642.33 526.409 1695.58 538.828Z" fill="url(#paint13_linear_205_237)"/>
<path opacity="0.55" d="M1655.87 625.593C1654.32 627.481 1652.71 629.369 1651.06 631.19C1633.69 650.563 1612.27 666.194 1588.19 676.759C1586.41 677.553 1584.59 678.282 1582.78 679.011C1577.41 681.163 1571.94 683.051 1566.34 684.707C1562.35 685.866 1558.33 686.892 1554.24 687.786C1541.62 690.535 1528.51 691.992 1515.06 691.992C1463.13 691.992 1416.27 670.268 1382.92 635.363C1379.53 631.786 1376.27 628.11 1373.17 624.269C1403.26 635.628 1446.92 637.913 1510.22 622.182C1565.84 608.339 1614.38 612.115 1655.87 625.593Z" fill="url(#paint14_linear_205_237)"/>
<path d="M1698.12 507.996C1698.12 513.427 1697.89 518.792 1697.42 524.124C1696.9 482.629 1682.63 432.987 1632.51 389.769C1536.29 306.779 1438.68 343.174 1413.9 354.6C1422.07 349.135 1430.71 344.333 1439.73 340.227C1457.66 332.08 1477.1 326.748 1497.53 324.828C1503.3 324.265 1509.13 324 1515.03 324C1532.63 324 1549.66 326.517 1565.78 331.153C1572.63 333.14 1579.32 335.491 1585.81 338.24C1588.25 339.267 1590.66 340.326 1593.03 341.452C1602.92 346.122 1612.31 351.685 1621.14 357.977C1630.69 364.833 1639.56 372.549 1647.63 381.06C1663.12 397.419 1675.64 416.594 1684.34 437.789C1685.43 440.438 1686.48 443.154 1687.44 445.869C1690.54 454.546 1693.01 463.52 1694.79 472.76C1696.96 484.185 1698.12 495.975 1698.12 507.996Z" fill="url(#paint15_linear_205_237)"/>
</g>
<g opacity="0.8" clip-path="url(#clip3_205_237)">
<path d="M306.546 545.239C111.707 563.642 6.82719 794.867 135.891 952.752C195.535 1025.99 295.135 1062.22 393.304 1037.03C445.897 1023.51 491.371 993.53 523.765 954.517C665.228 785.054 531.974 523.814 306.546 545.239Z" fill="url(#paint16_radial_205_237)" fill-opacity="0.3"/>
<path d="M284.848 790.08C248.537 796.463 243.19 797.515 210.08 825.222C188.178 843.523 165.322 837.615 152.378 831.503C149.96 819.687 148.665 807.43 148.665 794.867C148.665 743.393 170.227 696.91 204.835 663.975C211.954 668.186 219.311 673.89 225.034 681.495C241.043 702.784 237.842 711.307 284.848 735.787C331.821 760.268 321.159 783.696 284.848 790.08Z" fill="url(#paint17_linear_205_237)"/>
<path d="M494.335 717.316C460.817 710.322 437.961 748.113 415.139 745.362C388.433 742.171 395.927 702.784 373.48 661.259C362.239 640.479 361.456 626.083 363.465 616.915C421.474 627.577 469.776 665.741 494.335 717.316Z" fill="url(#paint18_linear_205_237)"/>
<path d="M511.809 794.867C511.809 865.117 471.683 925.996 413.027 956.011C399.64 934.926 421.338 919.273 447.192 902.942C479.245 882.705 449.338 874.183 454.651 841.18C459.999 808.177 439.698 806.038 449.304 778.365C456.15 758.604 491.848 777.347 511.707 789.706C511.775 791.403 511.809 793.135 511.809 794.867Z" fill="url(#paint19_linear_205_237)"/>
<path d="M341.461 849.702C322.045 855.712 311.554 832.658 286.994 837.988C262.435 843.319 242.134 886.95 275.243 885.897C308.352 884.844 316.902 880.566 341.461 897.611C366.02 914.656 394.872 902.942 403.421 876.322C411.937 849.702 406.589 829.466 341.461 849.702Z" fill="url(#paint20_linear_205_237)"/>
<path d="M382.03 769.843C371.811 773.103 369.222 778.365 372.424 784.749C375.626 791.132 388.434 790.079 394.838 799.654C401.241 809.229 417.285 820.943 421.543 799.654C425.835 778.365 405.533 762.373 382.03 769.843Z" fill="url(#paint21_linear_205_237)"/>
<path opacity="0.5" d="M344.663 714.465C342.756 728.657 329.71 714.465 308.352 710.22C286.995 705.976 278.445 693.176 288.051 684.653C297.656 676.131 310.464 669.747 323.306 677.183C336.113 684.653 346.775 698.506 344.663 714.465Z" fill="#05B192"/>
<path d="M322.215 630.361C295.51 630.361 282.702 645.267 258.143 653.789C243.496 658.848 231.915 652.974 224.932 647.406C254.634 626.287 290.98 613.86 330.254 613.86C331.616 613.86 332.945 613.86 334.273 613.927C336.147 621.601 335.466 630.361 322.215 630.361Z" fill="url(#paint22_linear_205_237)"/>
<path opacity="0.45" d="M503.157 850.245C488.34 896.252 455.537 934.247 413.027 956.011C403.114 961.07 392.691 965.246 381.859 968.472C367.723 972.648 352.872 975.161 337.509 975.738C335.091 975.84 332.673 975.874 330.22 975.874C261.72 975.874 202.042 938.05 171.147 882.196C162.495 866.577 156.091 849.532 152.378 831.503C149.96 819.687 148.665 807.429 148.665 794.867C148.665 773 152.548 752.051 159.667 732.663C180.207 793.814 227.214 872.722 334.069 887.357C354.916 890.209 374.399 890.582 392.589 889.02C437.211 885.116 473.931 869.565 503.157 850.245Z" fill="url(#paint23_linear_205_237)"/>
<path opacity="0.45" d="M511.809 794.867C511.809 814.186 508.777 832.793 503.157 850.245C488.34 896.252 455.537 934.247 413.027 956.011C403.114 961.07 392.691 965.246 381.859 968.472C367.723 972.648 352.872 975.161 337.509 975.738C335.091 975.84 332.672 975.874 330.22 975.874C261.72 975.874 202.041 938.05 171.146 882.196C202.552 895.064 239.953 903.858 284.303 905.59C327.325 907.287 363.022 900.666 392.589 888.986C456.15 863.929 491.576 815.443 510.787 775.513C511.298 780.165 511.605 784.918 511.741 789.672C511.775 791.403 511.809 793.135 511.809 794.867Z" fill="url(#paint24_linear_205_237)"/>
<path d="M509.391 765.225C509.391 765.225 483.538 670.833 364.658 639.766C293.399 621.125 243.939 637.932 215.77 654.366C305.729 581.161 443.309 610.226 494.335 717.316C506.189 742.136 508.54 761.761 509.391 765.225Z" fill="url(#paint25_linear_205_237)"/>
</g>
<g clip-path="url(#clip4_205_237)">
<path d="M1611.67 972.899C1470.67 986.279 1394.77 1154.26 1488.17 1268.97C1488.17 1268.97 1488.17 1268.97 1488.15 1268.97C1531.31 1322.19 1603.38 1348.51 1674.43 1330.2C1712.49 1320.38 1745.39 1298.59 1768.85 1270.26C1871.23 1147.11 1774.8 957.345 1611.67 972.899Z" fill="url(#paint26_radial_205_237)" fill-opacity="0.3"/>
<path d="M1688.8 1270.47C1670.31 1280.38 1649.17 1286.01 1626.71 1286.01C1575.55 1286.01 1531.2 1256.8 1509.42 1214.13C1518.65 1218.86 1535.67 1226.36 1555.46 1229.43C1584.16 1233.89 1618.9 1228.06 1635.24 1236.42C1662.48 1250.36 1666.91 1266.38 1688.8 1270.47Z" fill="url(#paint27_linear_205_237)"/>
<path d="M1577.94 1210.06C1552.6 1211.79 1517.4 1199.79 1501.02 1193.54C1497.15 1181.12 1495.06 1167.93 1495.06 1154.26C1495.06 1149.34 1495.34 1144.49 1495.86 1139.73C1503 1148.19 1519.38 1165.86 1539.98 1176.73C1567.87 1191.47 1612.01 1207.73 1577.94 1210.06Z" fill="url(#paint28_linear_205_237)"/>
<path d="M1739.67 1222.01C1734.72 1230.27 1728.87 1237.94 1722.29 1244.91C1705.39 1240.29 1686.54 1231.92 1671.27 1218.98C1644.09 1195.96 1640.29 1185.66 1577.56 1165.5C1533.79 1151.44 1510.75 1128.33 1500.83 1115.64C1503.92 1105.53 1508.2 1095.91 1513.53 1086.98C1525.96 1100.42 1553.51 1126.77 1588.42 1139.14C1636.45 1156.2 1644.18 1154.63 1687.55 1194.17C1706.01 1211.04 1724.52 1218.73 1739.67 1222.01Z" fill="url(#paint29_linear_205_237)"/>
<path d="M1758.38 1154.26C1758.38 1169.04 1755.96 1183.23 1751.47 1196.49C1738.75 1196.22 1719.05 1190.97 1696.8 1167.83C1658.07 1127.52 1600.77 1119.76 1599.99 1106.59C1599.22 1093.42 1658.86 1104.27 1695.25 1124.42C1721.43 1138.93 1740.81 1149.41 1758.28 1148.95C1758.34 1150.7 1758.38 1152.48 1758.38 1154.26Z" fill="url(#paint30_linear_205_237)"/>
<path d="M1572.9 1081.02C1557.13 1073.67 1538.83 1072.49 1538.06 1078.7C1537.28 1084.91 1548.9 1105.05 1569.81 1101.18C1590.7 1097.29 1584.52 1086.44 1572.9 1081.02Z" fill="url(#paint31_linear_205_237)"/>
<path d="M1749.61 1106.86C1730.06 1094.97 1696.7 1086.82 1644.93 1074.82C1601.37 1064.72 1581.97 1046.74 1573.4 1033.76C1584.49 1028.84 1596.38 1025.39 1608.83 1023.7C1618.36 1032.75 1638.02 1045.15 1678.23 1055.44C1701.06 1061.27 1718.8 1068.48 1732.38 1075.63C1739.46 1085.14 1745.26 1095.64 1749.61 1106.86Z" fill="url(#paint32_linear_205_237)"/>
<path d="M1686.73 1239.14C1679.94 1235.39 1656.52 1222.08 1671.25 1249.21C1677.04 1259.87 1702.23 1247.67 1686.73 1239.14Z" fill="url(#paint33_linear_205_237)"/>
<path d="M1654.98 1225.17C1651.8 1225.4 1653.43 1232.15 1656.52 1232.93C1659.64 1233.7 1665.84 1224.4 1654.98 1225.17Z" fill="url(#paint34_linear_205_237)"/>
<path opacity="0.45" d="M1751.45 1196.55C1748.42 1205.52 1744.45 1214.03 1739.67 1222.01C1734.72 1230.27 1728.87 1237.94 1722.29 1244.91C1712.61 1255.13 1701.31 1263.78 1688.82 1270.47C1670.33 1280.38 1649.19 1286.01 1626.74 1286.01C1575.58 1286.01 1531.23 1256.8 1509.44 1214.13C1506.07 1207.57 1503.25 1200.69 1501.04 1193.54C1497.17 1181.12 1495.09 1167.93 1495.09 1154.26C1495.09 1149.34 1495.36 1144.49 1495.88 1139.73C1496.78 1131.45 1498.45 1123.38 1500.83 1115.62C1500.91 1115.33 1501.02 1115.02 1501.1 1114.72C1520.24 1094.17 1556.36 1105.97 1574.47 1132.93C1601.65 1173.45 1666.61 1294.16 1751.45 1196.55Z" fill="url(#paint35_linear_205_237)"/>
<path opacity="0.55" d="M1752.03 1194.77C1749.65 1202.53 1745.24 1212.73 1739.67 1222.01C1680.32 1320.94 1532.4 1300.56 1500.39 1191.41C1516.83 1213.86 1538.91 1230.86 1568.26 1239.14C1672.88 1268.57 1726.48 1228.89 1752.03 1194.77Z" fill="url(#paint36_linear_205_237)"/>
<path d="M1749.61 1106.86C1757.23 1126.64 1759.74 1146.84 1757.97 1166.17C1753.95 1132.08 1737.08 1076.63 1672.02 1050.79C1624.35 1031.85 1584.43 1034.95 1556.08 1043.04C1561.56 1039.57 1567.34 1036.45 1573.38 1033.76C1641.9 1003.34 1722.49 1036.49 1749.61 1106.86Z" fill="url(#paint37_linear_205_237)"/>
</g>
<g clip-path="url(#clip5_205_237)">
<path d="M93.3175 1191.84C-351.366 1234.02 -590.727 1763.81 -296.141 2125.61C-160.064 2293.45 67.2238 2376.47 291.318 2318.71C411.349 2287.76 515.101 2219.08 589.098 2129.66C911.958 1741.28 607.792 1142.73 93.3175 1191.84Z" fill="url(#paint38_radial_205_237)" fill-opacity="0.3"/>
<path d="M554.982 1636.35C487.139 1636.12 358.072 1624.27 207.82 1553.25C41.7546 1474.75 -95.7241 1461.65 -154.532 1460.09C-134.358 1440.06 -112.237 1421.97 -88.4022 1406.3C-49.3006 1411.91 24.4627 1428.21 159.059 1472.64C318.581 1525.34 410.338 1494.63 454.892 1466.95C500.303 1514.19 535.042 1571.96 554.982 1636.35Z" fill="url(#paint39_linear_205_237)"/>
<path d="M417.658 1432.57C380.426 1447.38 307.208 1460.17 180.946 1423.69C70.4174 1391.72 4.91058 1379.33 -31.7764 1374.73C-9.81093 1364.59 13.0892 1356.33 36.8461 1350.02C69.0933 1358.67 111.934 1371.84 168.717 1391.96C281.426 1431.87 353.553 1426.49 394.369 1414.8C402.391 1420.41 410.181 1426.34 417.658 1432.57Z" fill="url(#paint40_linear_205_237)"/>
<path d="M353.164 1388.76C310.48 1392.97 228.538 1392.19 173.624 1336.53C238.43 1340.51 299.341 1358.98 353.164 1388.76Z" fill="url(#paint41_linear_205_237)"/>
<path d="M574.221 1763.42C574.221 1769.11 574.065 1774.8 573.909 1780.49C516.815 1787.04 399.51 1780.73 210.311 1682.74C-28.9718 1558.86 -149.782 1551.85 -230.088 1561.44C-225.492 1552.86 -220.663 1544.44 -215.444 1536.26C-162.011 1529.63 -42.5249 1531.5 156.644 1619.12C402.781 1727.41 481.218 1750.87 572.819 1727.87C573.676 1739.65 574.221 1751.49 574.221 1763.42Z" fill="url(#paint42_linear_205_237)"/>
<path d="M73.4554 1685.23C-76.3301 1616.08 -214.043 1639 -266.074 1652.02C-274.331 1682.58 -279.238 1714.46 -280.406 1747.36C7.48116 1695.21 218.334 1856.66 146.751 1868.59C73.4555 1880.82 41.7536 1890.57 -73.0587 1927.29C-156.87 1954.1 -223.857 1928.69 -253.767 1913.02C-242.239 1944.05 -227.206 1973.36 -209.058 2000.49C-60.4403 2056.07 58.3444 1997.29 212.804 1949.27C332.835 1911.93 449.672 1951.14 514.556 1981.7C536.365 1944.98 552.8 1904.68 562.926 1861.96C354.8 1900.24 249.646 1766.54 73.4554 1685.23Z" fill="url(#paint43_linear_205_237)"/>
<path d="M-16.9003 1858.76C-60.8311 1861.18 -85.2891 1873.42 -153.678 1883.24C-187.405 1888.07 -231.18 1880.43 -266.932 1871.39C-273.787 1845.12 -278.149 1817.76 -279.862 1789.77C-76.721 1756.87 24.4602 1856.42 -16.9003 1858.76Z" fill="url(#paint44_linear_205_237)"/>
<path d="M454.658 2060.13C444.688 2070.49 434.251 2080.32 423.268 2089.59C371.158 2073.3 312.116 2063.09 249.258 2066.52C104.302 2074.47 17.5305 2124.44 -105.694 2108.69C-113.016 2103.31 -120.182 2097.78 -127.114 2091.93C-76.7963 2098.71 13.558 2095.44 171.055 2051.86C281.661 2021.3 377.546 2033.07 454.658 2060.13Z" fill="url(#paint45_linear_205_237)"/>
<path d="M356.436 2136.29C294.512 2171.21 222.93 2191.17 146.752 2191.17C119.412 2191.17 92.695 2188.6 66.835 2183.69C158.591 2081.95 292.331 2112.9 356.436 2136.29Z" fill="url(#paint46_linear_205_237)"/>
<path opacity="0.55" d="M532.159 1948.57C526.707 1959.87 520.787 1970.87 514.478 1981.62C497.575 2010.08 477.479 2036.43 454.657 2060.13C444.687 2070.49 434.249 2080.32 423.267 2089.59C402.547 2107.21 380.193 2122.88 356.358 2136.29C294.434 2171.21 222.851 2191.17 146.673 2191.17C119.334 2191.17 92.6167 2188.6 66.7567 2183.69C3.19716 2171.68 -55.3774 2145.57 -105.617 2108.69C-112.939 2103.31 -120.105 2097.78 -127.038 2091.93C-158.584 2065.58 -186.313 2034.79 -209.135 2000.41C-227.206 1973.28 -242.239 1943.97 -253.845 1912.94C-258.908 1899.38 -263.27 1885.5 -267.009 1871.31C-273.863 1845.04 -278.225 1817.68 -279.939 1789.69C-280.25 1784.86 -280.484 1780.03 -280.562 1775.19C-280.718 1771.3 -280.718 1767.32 -280.718 1763.42C-280.718 1758.04 -280.64 1752.66 -280.406 1747.28C-279.16 1714.47 -274.253 1682.5 -266.074 1651.94C-257.506 1620.14 -245.433 1589.89 -230.166 1561.44C-225.57 1552.86 -220.741 1544.44 -215.523 1536.26C-210.537 1528.38 -205.397 1520.66 -199.944 1513.1C-139.656 1540.86 -77.8101 1600.1 -32.7888 1718.13C31.8613 1887.61 147.842 1989.34 279.245 2009.06C360.486 2021.38 447.647 2002.28 532.159 1948.57Z" fill="url(#paint47_linear_205_237)"/>
<path opacity="0.5" d="M572.897 1797.1C571.183 1819.16 567.756 1840.83 562.771 1861.88C555.605 1892.13 545.323 1921.21 532.16 1948.57C526.707 1959.87 520.787 1970.87 514.478 1981.62C497.576 2010.08 477.48 2036.43 454.657 2060.13C444.687 2070.49 434.25 2080.32 423.267 2089.59C402.548 2107.21 380.193 2122.88 356.358 2136.29C294.434 2171.21 222.852 2191.17 146.674 2191.17C119.334 2191.17 92.6172 2188.6 66.7571 2183.69C3.19759 2171.68 -55.3769 2145.57 -105.617 2108.69C-112.939 2103.31 -120.105 2097.78 -127.037 2091.93C-158.583 2065.58 -186.313 2034.79 -209.135 2000.41C-227.206 1973.28 -242.239 1943.97 -253.845 1912.94C-258.908 1899.38 -263.27 1885.5 -267.008 1871.31C-273.863 1845.04 -278.225 1817.68 -279.938 1789.69C-280.25 1784.86 -280.484 1780.03 -280.562 1775.19C-239.201 1867.65 -164.425 1956.91 -31.62 2007.89C81.8681 2051.39 187.256 2042.66 279.168 2009.14C409.324 1961.9 512.375 1865.23 572.897 1797.1Z" fill="url(#paint48_linear_205_237)"/>
<path d="M572.973 1796.16C572.817 1787.12 567.365 1576.09 314.061 1447.46C12.7762 1294.43 -180.395 1489.01 -184.757 1493.46C-23.2096 1294.59 276.751 1281.65 454.733 1466.95C539.479 1554.97 582.164 1674.01 572.973 1796.16Z" fill="url(#paint49_linear_205_237)"/>
</g>
<g clip-path="url(#clip6_205_237)">
<path d="M2110.2 2413.31C2110.2 2398.41 2109.42 2383.67 2107.87 2369.08C2096.4 2254.84 2042.09 2159.34 1964.75 2091.93C1893.37 2028.6 1800.62 1988.25 1697.6 1983.59C1605.63 1978.78 1510.5 2003.2 1426.1 2063.52C1425.89 2063.63 1425.68 2063.78 1425.53 2063.94C1425.48 2063.99 1425.42 2064.04 1425.11 2064.25C1425.01 2064.3 1424.96 2064.35 1424.96 2064.35C1353.32 2115.83 1303.21 2183.55 1274.47 2257.79C1131.98 2260.59 1037.26 2286.71 1028.13 2334.36C1018.37 2385.11 1107.91 2449.06 1255.18 2507.31C1255.38 2508.25 1255.59 2509.18 1255.8 2510.06C1255.85 2510.26 1255.9 2510.47 1255.95 2510.63C1256.78 2514.35 1257.72 2518.08 1258.65 2521.8C1258.75 2522.27 1258.86 2522.68 1259.01 2523.15C1259.95 2526.82 1260.99 2530.49 1262.02 2534.11C1262.13 2534.42 1262.18 2534.73 1262.28 2535.05C1264.51 2542.65 1266.9 2550.15 1269.54 2557.55C1269.6 2557.76 1269.7 2557.91 1269.75 2558.12C1270.89 2561.33 1272.03 2564.53 1273.28 2567.69C1300.98 2641.16 1349.38 2708.21 1418.11 2759.53C1419.87 2760.87 1421.69 2762.22 1423.5 2763.51C1424.7 2764.39 1425.89 2765.22 1427.08 2766.1C1430.35 2768.43 1433.62 2770.7 1436.94 2772.88C1521.13 2829.22 1614.71 2851.15 1704.71 2845C1721.41 2843.96 1737.86 2842 1753.99 2839.15C1795.85 2831.75 1835.59 2818.3 1872.36 2799.78C1876.2 2797.86 1879.99 2795.85 1883.78 2793.78C1884.4 2793.42 1885.07 2793.1 1885.7 2792.74C1889.43 2790.67 1893.16 2788.6 1896.85 2786.43C1897.16 2786.28 1897.47 2786.07 1897.73 2785.91C1901.36 2783.79 1904.94 2781.57 1908.52 2779.34C1908.83 2779.14 1909.14 2778.98 1909.4 2778.77C1913.08 2776.45 1916.77 2774.01 1920.4 2771.58C1920.55 2771.48 1920.71 2771.38 1920.87 2771.27C1921.18 2771.07 1921.44 2770.86 1921.75 2770.65C1924.08 2769.05 1926.36 2767.5 1928.65 2765.84C1929.22 2765.43 1929.79 2765.06 1930.31 2764.65C1932.59 2762.99 1934.82 2761.34 1937.1 2759.68C1937.57 2759.32 1938.04 2758.96 1938.5 2758.65C1943.85 2754.61 1949.03 2750.53 1954.17 2746.23C1954.95 2745.61 1955.67 2744.94 1956.45 2744.32C1958.16 2742.87 1959.87 2741.42 1961.53 2739.97C1962.52 2739.14 1963.51 2738.26 1964.49 2737.39C1965.94 2736.09 1967.4 2734.8 1968.85 2733.45C1969.83 2732.57 1970.82 2731.64 1971.8 2730.71C1971.91 2730.61 1972.01 2730.5 1972.12 2730.4C1972.63 2729.94 1973.15 2729.42 1973.72 2728.95C1996.03 2708.41 2016.21 2685.44 2033.85 2660.35C2204.46 2663.25 2321.07 2636.86 2331.34 2583.78C2340.83 2533.8 2253.84 2470.94 2110.2 2413.31ZM1262.39 2293.44H1262.33C1262.8 2291.94 1263.27 2290.44 1263.73 2288.94C1263.27 2290.44 1262.85 2291.94 1262.39 2293.44ZM1250.09 2348.74C1250.04 2349.05 1249.99 2349.36 1249.94 2349.67C1249.37 2353.35 1248.85 2357.07 1248.43 2360.8C1248.38 2361.42 1248.28 2361.99 1248.22 2362.61C1247.76 2366.33 1247.34 2370.06 1247.03 2373.78C1247.03 2373.94 1246.98 2374.09 1246.98 2374.25C1246.67 2377.82 1246.36 2381.44 1246.15 2385.01C1246.1 2385.68 1246.05 2386.36 1245.99 2387.08C1245.79 2390.7 1245.58 2394.27 1245.47 2397.89C1245.42 2398.62 1245.42 2399.39 1245.42 2400.12C1245.37 2401.72 1245.32 2403.33 1245.27 2404.93C1178.56 2376.53 1140.9 2349.67 1144.84 2329.14C1148.73 2309.06 1191.89 2298.09 1261.71 2295.97C1256.73 2313.2 1252.84 2330.79 1250.09 2348.74ZM2108.44 2453.66C2184.9 2484.5 2228.94 2513.89 2224.69 2535.98C2220.38 2558.43 2166.9 2569.5 2082.04 2569.55C2095.78 2533.55 2104.91 2494.79 2108.44 2453.66ZM1079.43 2334.57C1088.25 2288.83 1184.89 2275.74 1268.82 2273.11C1267.62 2276.52 1266.54 2279.93 1265.45 2283.4C1159.11 2287.13 1095.25 2306.27 1089.44 2336.48C1083.37 2368.04 1140.48 2411.71 1246.1 2456.41C1246.46 2456.56 1246.77 2456.67 1247.13 2456.82C1247.13 2456.82 1247.13 2456.82 1247.19 2456.82C1247.34 2458.22 1247.45 2459.61 1247.6 2461.01C1247.86 2463.44 1248.17 2465.93 1248.43 2468.36C1246.3 2467.48 1244.23 2466.6 1242.15 2465.72C1162.84 2432.25 1070.25 2382.27 1079.43 2334.57ZM2300.32 2568.36C2291.14 2616.06 2186.56 2628.27 2100.45 2630.08C2092 2630.24 2083.28 2630.34 2074.51 2630.34C2067.46 2630.34 2060.3 2630.29 2053.09 2630.19C2055.01 2626.88 2056.93 2623.46 2058.8 2620.1C2073.06 2620.31 2086.91 2620.25 2100.29 2619.94C2215.04 2617.46 2284.29 2597.96 2290.36 2566.45C2296.43 2534.89 2239.32 2491.22 2133.65 2446.52C2125.87 2443.21 2117.83 2439.95 2109.63 2436.7C2109.63 2436.18 2109.68 2435.61 2109.68 2435.09C2109.84 2432.04 2109.94 2428.93 2110.05 2425.88C2119.49 2429.61 2128.67 2433.38 2137.64 2437.16C2216.91 2470.69 2309.5 2520.66 2300.32 2568.36Z" fill="url(#paint50_radial_205_237)" fill-opacity="0.3"/>
<path d="M1532.02 2414.55C1534.05 2434.78 1463.08 2414.55 1418.47 2414.55C1388.7 2414.55 1357.05 2419.98 1333.35 2412.12C1333.56 2379.48 1338.38 2347.92 1347.09 2318.06C1359.18 2316.51 1379.67 2319.98 1410.38 2343.78C1465.11 2386.2 1530 2394.32 1532.02 2414.55Z" fill="url(#paint51_linear_205_237)"/>
<path d="M1769.24 2456.98C1718.56 2452.94 1661.76 2438.76 1651.64 2448.9C1641.53 2458.99 1733.39 2484.81 1817.9 2499.45C1911.16 2515.64 1969.99 2521.7 1949.71 2495.42C1929.42 2469.13 1897 2436.75 1846.27 2452.94C1795.64 2469.13 1797.56 2459.25 1769.24 2456.98Z" fill="url(#paint52_linear_205_237)"/>
<path d="M1765.19 2598.58C1765.19 2620.46 1564.44 2562.16 1497.53 2588.49C1447.52 2608.15 1431.49 2622.12 1401.2 2619.53C1365.51 2571.62 1341.96 2514.14 1335.27 2451.65C1352.75 2458.27 1382.84 2471.1 1430.61 2495.47C1517.86 2539.91 1765.19 2568.21 1765.19 2598.58Z" fill="url(#paint53_linear_205_237)"/>
<path d="M1923.51 2655.85C1897.31 2682.39 1866.76 2704.69 1833.1 2721.61C1824.07 2713.53 1815.2 2704.43 1801.71 2699.67C1767.22 2687.51 1676.02 2665.32 1694.23 2653.16C1712.49 2641 1771.26 2649.12 1840.2 2645.09C1881.96 2642.6 1908.83 2649.8 1923.51 2655.85Z" fill="url(#paint54_linear_205_237)"/>
<path d="M1894.98 2600.6C1870.7 2574.88 1801.71 2580.37 1811.83 2604.63C1817.38 2617.82 1927.4 2634.95 1894.98 2600.6Z" fill="url(#paint55_linear_205_237)"/>
<path d="M1600.96 2636.97C1570.82 2630.29 1550.28 2643.02 1546.24 2653.16C1542.19 2663.25 1629.39 2677.42 1631.41 2667.33C1633.44 2657.25 1619.22 2641 1600.96 2636.97Z" fill="url(#paint56_linear_205_237)"/>
<path d="M1588.82 2463.08C1568.75 2458.06 1532.07 2467.12 1532.07 2479.27C1532.07 2491.43 1580.73 2505.56 1601.01 2499.5C1621.24 2493.4 1629.34 2473.17 1588.82 2463.08Z" fill="url(#paint57_linear_205_237)"/>
<path d="M1738.79 2752.96C1719.08 2756.48 1698.74 2758.29 1678.05 2758.29C1607.03 2758.29 1541 2736.87 1486.17 2700.14C1526.78 2688.44 1594.32 2698.01 1661.86 2729.99C1693.3 2744.94 1719.08 2750.99 1738.79 2752.96Z" fill="url(#paint58_linear_205_237)"/>
<path opacity="0.45" d="M1871.74 2698.89C1859.4 2707.27 1846.53 2714.83 1833.1 2721.61C1803.79 2736.35 1772.09 2747.06 1738.74 2752.96C1719.03 2756.48 1698.69 2758.29 1677.99 2758.29C1606.98 2758.29 1540.95 2736.87 1486.12 2700.14C1453.38 2678.25 1424.7 2650.93 1401.25 2619.43C1396.17 2612.6 1391.29 2605.56 1386.73 2598.32C1359.18 2555.02 1341.08 2505.09 1335.32 2451.54C1334.02 2439.39 1333.35 2426.97 1333.35 2414.5C1333.35 2413.67 1333.35 2412.84 1333.35 2412.07C1333.56 2385.17 1336.82 2358.99 1342.89 2333.9C1385.95 2447.3 1468.22 2577.26 1625.14 2647.21C1644.64 2655.9 1665.29 2663.66 1687.12 2670.34C1752.54 2690.31 1814.32 2698.69 1871.74 2698.89Z" fill="url(#paint59_linear_205_237)"/>
<path opacity="0.55" d="M2003.09 2529.1C1986.07 2577.11 1958.68 2620.25 1923.51 2655.85C1907.74 2671.84 1890.42 2686.27 1871.74 2698.89C1859.4 2707.27 1846.53 2714.83 1833.1 2721.61C1803.79 2736.35 1772.09 2747.06 1738.74 2752.96C1719.03 2756.48 1698.69 2758.29 1678 2758.29C1606.98 2758.29 1540.95 2736.87 1486.12 2700.14C1453.38 2678.25 1424.7 2650.93 1401.25 2619.43C1396.17 2612.6 1391.29 2605.56 1386.73 2598.32C1474.91 2629.1 1554.23 2643.9 1625.14 2647.16C1798.44 2655.12 1921.85 2594.13 2003.09 2529.1Z" fill="url(#paint60_linear_205_237)"/>
<path d="M1477.61 2134.81C1477.35 2135.02 1477.14 2135.13 1477.04 2135.23C1477.14 2135.13 1477.4 2134.92 1477.61 2134.81Z" fill="url(#paint61_linear_205_237)"/>
<path d="M2020.2 2456.25C2021.76 2441.09 2034.21 2270.62 1827.08 2156.7C1620.67 2043.19 1489.85 2126.49 1477.61 2134.81C1534.1 2094.46 1603.3 2070.71 1678.05 2070.71C1885.33 2070.77 2045.31 2251.95 2020.2 2456.25Z" fill="url(#paint62_linear_205_237)"/>
<g opacity="0.7">
<path d="M2041.42 2440.06C2035.19 2437.42 2028.81 2434.78 2022.28 2432.19C2022.07 2436.75 2021.71 2441.2 2021.34 2445.7C2082.29 2470.27 2117.41 2493.71 2114.04 2511.3C2110.62 2529.25 2067.77 2538.05 1999.82 2538.05C1918.01 2538.05 1799.79 2525.32 1669.95 2500.49C1530.57 2473.79 1408.82 2439.07 1333.45 2406.9C1280.33 2384.23 1250.25 2362.87 1253.41 2346.52C1256.47 2330.48 1290.92 2321.79 1346.52 2320.08C1346.73 2319.36 1346.89 2318.69 1347.09 2318.01C1347.87 2315.32 1348.7 2312.68 1349.53 2310.05C1264.82 2312.99 1213.88 2328.31 1209.27 2352.37C1204.44 2377.51 1249.94 2412.33 1334.13 2447.92C1334.39 2448.03 1334.7 2448.13 1334.96 2448.28C1422 2484.96 1540.48 2518.7 1668.71 2543.27C1782.52 2565.05 1891.87 2577.31 1981.14 2578.4C1992.76 2578.56 2004.02 2578.5 2014.86 2578.3C2106.26 2576.33 2161.51 2560.76 2166.33 2535.67C2171.15 2510.47 2125.66 2475.65 2041.42 2440.06Z" fill="url(#paint63_linear_205_237)"/>
<path d="M2022.74 2413.57V2414.55C2022.74 2417.6 2022.69 2420.61 2022.64 2423.66C2030.16 2426.61 2037.53 2429.61 2044.63 2432.66C2107.82 2459.36 2181.63 2499.19 2174.32 2537.17C2167 2575.14 2083.64 2584.87 2015.07 2586.37C2008.32 2586.52 2001.42 2586.57 1994.37 2586.57C1988.56 2586.57 1982.65 2586.52 1976.63 2586.42C1887.72 2584.92 1779.56 2572.71 1667.15 2551.19C1540.43 2526.92 1423.14 2493.71 1335.99 2457.49C1334.28 2456.77 1332.62 2456.1 1330.96 2455.37C1267.78 2428.68 1193.96 2388.84 1201.28 2350.86C1208.28 2314.39 1285.37 2303.99 1352.28 2301.87C1353.68 2297.78 1355.19 2293.7 1356.8 2289.66C1243.19 2291.89 1167.72 2312.74 1160.4 2350.66C1152.62 2391.12 1224 2442.08 1341.34 2488.48C1426.15 2522.01 1535.03 2553.15 1655.38 2576.23C1767.74 2597.75 1873.45 2608.98 1961.27 2610.53C2097.55 2612.91 2190.76 2591.9 2198.91 2549.53C2206.53 2509.59 2137.23 2459.46 2022.74 2413.57Z" fill="url(#paint64_linear_205_237)"/>
</g>
</g>
<g clip-path="url(#clip7_205_237)">
<path d="M679.151 3105.11C736.356 3070.14 767.675 3036.87 760.538 3012.58C752.939 2986.57 702.8 2975.68 627.77 2979.13C627.983 2979.53 628.16 2979.92 628.338 2980.31C580.117 2884.32 481.721 2821 370.507 2821C243.811 2821 135.153 2903 96.7323 3018.77C96.9454 3018.09 97.1585 3017.38 97.407 3016.7C-57.8739 3031.04 -77.9364 3088.6 61.8626 3148.9C4.65755 3183.87 -26.6614 3217.14 -19.5241 3241.43C-11.286 3269.65 46.9843 3280.03 132.774 3273.7C163.099 3317.85 204.715 3352.25 252.333 3373.71C288.41 3389.96 328.393 3399 370.507 3399C481.721 3399 580.72 3335.57 628.941 3238.48C634.055 3237.59 766.113 3231.37 772.753 3185.23C776.339 3160.14 740.688 3131.65 679.151 3105.11ZM630.859 2985.4C691.97 2982.27 731.811 2989.99 737.528 3009.55C746.867 3041.43 661.894 3086.43 658.201 3088.99C655.538 3051.5 645.702 3015.99 630.078 2983.79C630.326 2984.33 630.61 2984.86 630.859 2985.4ZM95.241 3023.32C95.9867 3020.86 82.0317 3059.5 82.0317 3109.98C82.0317 3117.88 82.3512 3124.57 82.8129 3130.94C82.8129 3130.94 82.8128 3130.94 82.7773 3130.94C-43.3862 3082.2 -41.2201 3035.17 95.241 3023.32ZM-1.80517 3226.49C-7.30906 3207.67 19.6778 3180.99 69.0353 3151.93C78.0191 3155.63 84.1267 3157.97 86.1507 3158.76C91.6546 3191.31 102.627 3221.97 118.038 3249.87C114.629 3249.8 8.06634 3260.18 -1.80517 3226.49ZM753.081 3172.95C748.145 3207.21 643.997 3212.19 640.162 3212.83C652.164 3181.24 658.165 3148.97 658.911 3116.96C662.71 3114.78 666.51 3112.69 672.475 3109.13C725.384 3130.94 755.886 3153.53 753.081 3172.95Z" fill="url(#paint65_radial_205_237)" fill-opacity="0.3"/>
<g opacity="0.75">
<path d="M323.918 3308.03C304.033 3289.43 281.627 3283.31 282.515 3268.54C282.586 3267.58 282.728 3266.62 282.976 3265.59C287.202 3248.62 329.706 3263.31 347.922 3265.59C370.506 3268.44 390.285 3268.44 394.51 3298.14C398.736 3327.85 345.082 3327.85 323.918 3308.03Z" fill="#3E9E81"/>
<path d="M456.651 3257.12C440.352 3262.14 420.751 3258.26 416.526 3248.41C415.993 3247.16 415.709 3245.81 415.709 3244.39C415.709 3231.65 445.714 3230.37 456.651 3221.76C467.303 3213.37 476.785 3207.35 484.135 3206.71C490.42 3206.18 495.107 3209.63 497.593 3218.92C503.239 3240.15 475.009 3251.47 456.651 3257.12Z" fill="#3E9E81"/>
<path d="M551.248 3093.01C542.3 3097.99 531.292 3102.26 528.984 3094.54C527.99 3091.27 528.558 3085.86 531.505 3077.47C539.069 3055.8 559.735 3045.77 572.27 3049.89C576.105 3051.14 579.194 3053.7 580.898 3057.65C590.77 3080.28 563.961 3085.93 551.248 3093.01Z" fill="#3E9E81"/>
<path d="M229.643 3177.68C229.537 3177.75 229.43 3177.83 229.323 3177.9C202.976 3192.3 167.183 3159.5 170.023 3146.77C170.521 3144.63 171.124 3143.03 171.976 3141.82C176.166 3135.88 185.576 3140.19 206.74 3142.53C231.951 3145.34 244.663 3169.07 229.643 3177.68Z" fill="#3E9E81"/>
<path d="M169.987 3101.52C169.029 3102.12 168.105 3102.55 167.218 3102.83C158.198 3105.68 155.5 3090.52 151.629 3078.89C148.043 3068.15 151.523 3064.45 156.068 3065.26C156.92 3065.41 157.808 3065.73 158.695 3066.15C172.828 3073.2 181.279 3094.44 169.987 3101.52Z" fill="#3E9E81"/>
<path d="M515.916 3301.31C494.93 3317.35 471.21 3330.02 445.608 3338.45C444.579 3337.38 443.62 3336.21 442.839 3334.93C439.643 3329.95 438.755 3323.37 443.94 3315.08C455.622 3296.33 469.328 3302.27 489.142 3298.11C496.528 3296.54 502.281 3296.58 506.791 3297.5C510.732 3298.28 513.715 3299.74 515.916 3301.31Z" fill="#3E9E81"/>
<path d="M605.612 3158.76C597.765 3196.86 580.933 3231.65 557.462 3260.82C554.621 3259.37 552.065 3257.34 550.005 3254.53C549.934 3254.46 549.863 3254.35 549.828 3254.28C535.695 3234.46 556.894 3216.07 565.345 3180.71C570.458 3159.29 584.911 3156.02 595.492 3156.8C599.789 3157.08 603.446 3158.08 605.612 3158.76Z" fill="#3E9E81"/>
<path d="M610.547 3109.98C610.547 3118.38 610.121 3126.67 609.269 3134.85C606.57 3134.57 603.871 3133.68 602.096 3131.33C601.492 3130.51 600.995 3129.55 600.64 3128.34C597.799 3118.45 587.857 3122.26 590.769 3112.79C593.609 3103.54 598.971 3098.95 603.552 3096.68C606.144 3095.4 608.523 3094.83 610.05 3094.61C610.37 3099.7 610.547 3104.82 610.547 3109.98Z" fill="#3E9E81"/>
<path d="M387.444 3225.99C387.444 3226.03 387.444 3226.07 387.409 3226.1C384.462 3238.7 355.664 3234.25 347.888 3231.65C339.401 3228.81 319.693 3215.39 325.304 3201.95C327.292 3197.18 330.275 3195.51 333.826 3195.72C342.81 3196.15 355.309 3208.42 363.44 3210.45C378.78 3214.25 389.61 3216.25 387.444 3225.99Z" fill="#3E9E81"/>
<path d="M196.832 3220.34C195.873 3222.01 194.773 3223.29 193.494 3224.22C187.387 3228.7 178.19 3224.57 169.987 3217.53C163.17 3211.66 160.364 3201.73 163.489 3198.99C164.874 3197.75 167.466 3197.96 171.408 3200.56C184.12 3209.03 202.478 3210.41 196.832 3220.34Z" fill="#3E9E81"/>
<path d="M512.756 3211.41C508.069 3215.39 502.672 3211.66 499.902 3206.89C498.943 3205.25 498.304 3203.55 498.091 3201.95C497.239 3195.68 499.192 3193.3 508.389 3197.96C512.33 3199.95 514.851 3201.77 515.916 3203.62C517.266 3206 516.272 3208.42 512.756 3211.41Z" fill="#3E9E81"/>
<path d="M515.951 3159.5C515.88 3159.36 515.774 3159.18 515.703 3159.04C510.802 3149.58 525.929 3148.08 531.504 3141.11C536.369 3135.03 546.631 3126.31 551.957 3131.68C552.81 3132.54 553.555 3133.78 554.088 3135.45C561.119 3156.66 521.597 3169.39 515.951 3159.5Z" fill="#3E9E81"/>
<path d="M410.029 3315.11C407.508 3314.61 403.744 3312.69 402.004 3304.87C401.862 3304.12 401.684 3303.27 401.578 3302.38C400.157 3292.49 400.157 3281.17 405.803 3281.17C408.644 3281.17 408.644 3291.06 418.515 3300.99C419.58 3302.06 420.184 3303.27 420.433 3304.51C421.498 3309.95 415.781 3316.25 410.029 3315.11Z" fill="#3E9E81"/>
<path d="M446.638 3184.66C444.188 3184.26 441.809 3183.41 439.678 3182.17C425.972 3173.95 441.631 3144.49 455.373 3155.55C455.799 3155.91 456.19 3156.27 456.616 3156.69C475.826 3175.9 460.38 3186.93 446.638 3184.66Z" fill="#3E9E81"/>
<path d="M268.383 3234.28C266.821 3232.51 265.436 3230.26 264.619 3227.42C262.346 3219.52 269.129 3205.29 271.934 3199.88C273.319 3199.85 274.668 3200.49 275.911 3201.95C290.86 3219.66 276.976 3232.15 268.383 3234.28Z" fill="#3E9E81"/>
</g>
<g opacity="0.7">
<path d="M290.007 3220.34C287.166 3220.34 285.781 3231.65 288.587 3233.07C291.427 3234.5 301.299 3220.34 290.007 3220.34Z" fill="#378989"/>
<path d="M567.546 3018.66C555.296 3017.45 556.751 3032.36 568.185 3035.38C579.619 3038.4 589.278 3020.79 567.546 3018.66Z" fill="#378989"/>
<path d="M504.659 3264.2C497.061 3264.2 497.593 3269.86 504.659 3275.52C511.69 3281.17 531.469 3264.2 504.659 3264.2Z" fill="#378989"/>
<path d="M186.925 3102.9C177.48 3106.71 184.084 3114.22 191.151 3117.06C198.252 3119.87 201.058 3097.25 186.925 3102.9Z" fill="#378989"/>
<path d="M161.536 3032.18C155.819 3033.32 158.695 3042.07 167.182 3043.49C175.633 3044.91 175.633 3029.37 161.536 3032.18Z" fill="#378989"/>
<path d="M566.763 2995.39C559.697 2996.82 568.184 3010.94 573.83 3005.28C579.476 2999.63 573.83 2993.97 566.763 2995.39Z" fill="#378989"/>
<path d="M321.077 3169.39C314.792 3172.88 322.497 3184.94 332.369 3182.13C342.276 3179.32 333.789 3162.31 321.077 3169.39Z" fill="#378989"/>
</g>
<path d="M420.432 3304.51C421.497 3309.95 415.78 3316.25 410.028 3315.11C407.507 3314.61 403.743 3312.69 402.003 3304.87C409.211 3308.6 415.674 3307.04 420.432 3304.51Z" fill="#377089"/>
<path d="M151.629 3078.85C148.043 3068.11 151.523 3064.41 156.068 3065.23C151.594 3074.98 161.998 3094.19 167.253 3102.8C158.198 3105.64 155.5 3090.49 151.629 3078.85Z" fill="#377089"/>
<path d="M193.494 3224.18C187.387 3228.66 178.19 3224.54 169.987 3217.49C163.17 3211.62 160.364 3201.7 163.489 3198.96C166.863 3214.15 183.516 3221.26 193.494 3224.18Z" fill="#377089"/>
<path d="M229.643 3177.68C229.537 3177.75 229.43 3177.83 229.323 3177.9C202.976 3192.3 167.183 3159.5 170.023 3146.77C170.521 3144.63 171.124 3143.03 171.976 3141.82C175.918 3147.16 182.309 3153.99 192.607 3162.35C208.586 3175.33 221.334 3178 229.643 3177.68Z" fill="#377089"/>
<path d="M325.303 3201.95C327.292 3197.18 330.274 3195.51 333.825 3195.72C328.747 3202.55 327.079 3211.3 338.015 3220.34C355.131 3234.43 376.507 3229.87 387.408 3226.1C384.461 3238.7 355.663 3234.25 347.887 3231.65C339.436 3228.81 319.728 3215.39 325.303 3201.95Z" fill="#377089"/>
<path d="M394.51 3298.14C398.736 3327.85 345.082 3327.85 323.918 3308.03C304.033 3289.43 281.627 3283.31 282.515 3268.54C295.973 3276.55 318.13 3293.7 343.697 3309.46C380.378 3332.08 394.51 3298.14 394.51 3298.14Z" fill="#377089"/>
<path d="M446.639 3184.66C459.209 3181.67 457.362 3164.73 455.374 3155.55C455.8 3155.91 456.191 3156.27 456.617 3156.69C475.827 3175.9 460.381 3186.93 446.639 3184.66Z" fill="#377089"/>
<path d="M497.594 3218.92C503.24 3240.12 475.011 3251.47 456.652 3257.12C440.354 3262.14 420.753 3258.26 416.527 3248.41C421.001 3250.83 427.322 3253.53 434.069 3254.28C446.781 3255.7 476.431 3250.04 486.303 3230.23C492.02 3218.81 488.291 3211.12 484.137 3206.71C490.422 3206.18 495.109 3209.59 497.594 3218.92Z" fill="#377089"/>
<path d="M515.881 3203.65C517.266 3206 516.272 3208.46 512.757 3211.44C508.069 3215.43 502.672 3211.69 499.902 3206.93C506.756 3210.16 512.615 3206.61 515.881 3203.65Z" fill="#377089"/>
<path d="M554.053 3135.45C561.119 3156.66 521.562 3169.39 515.916 3159.5C515.845 3159.36 515.739 3159.18 515.668 3159.04C546.703 3156.34 552.1 3141.89 551.887 3131.68C552.775 3132.54 553.521 3133.78 554.053 3135.45Z" fill="#377089"/>
<path d="M551.248 3093.01C542.3 3097.99 531.292 3102.26 528.984 3094.54C539.46 3085.15 563.606 3082.55 575.288 3073.23C584.627 3065.76 577.916 3055.8 572.305 3049.93C576.14 3051.18 579.229 3053.74 580.934 3057.69C590.77 3080.28 563.961 3085.93 551.248 3093.01Z" fill="#377089"/>
<path d="M271.152 3320.77C272.608 3324.47 272.643 3327.35 272.182 3329.41C241.537 3315.61 214.338 3295.58 192.145 3270.89C196.157 3269.33 200.809 3268.4 206.206 3268.29C211.461 3275.55 218.883 3284.45 229.322 3295.3C239.229 3305.58 253.93 3314.05 271.152 3320.77Z" fill="#377089"/>
<path d="M506.754 3297.54C510.767 3298.28 513.714 3299.74 515.915 3301.34C494.929 3317.39 471.209 3330.05 445.607 3338.49C444.578 3337.42 443.619 3336.24 442.838 3334.96C469.612 3325.43 494.575 3307.25 506.754 3297.54Z" fill="#377089"/>
<path d="M605.612 3158.76C597.764 3196.86 580.933 3231.65 557.462 3260.82C554.621 3259.37 552.064 3257.34 550.005 3254.53C578.199 3228.91 592.048 3172.84 595.527 3156.8C599.789 3157.08 603.446 3158.08 605.612 3158.76Z" fill="#377089"/>
<path d="M610.547 3109.98C610.547 3118.38 610.121 3126.67 609.269 3134.85C606.57 3134.56 603.871 3133.68 602.096 3131.33C609.126 3122.61 605.824 3105.29 603.552 3096.68C606.144 3095.4 608.523 3094.83 610.05 3094.61C610.369 3099.7 610.547 3104.82 610.547 3109.98Z" fill="#377089"/>
<path opacity="0.35" d="M610.548 3109.98C610.548 3118.38 610.122 3126.67 609.27 3134.85C608.453 3142.93 607.21 3150.89 605.612 3158.76C597.765 3196.86 580.933 3231.65 557.462 3260.82C545.318 3275.94 531.363 3289.53 515.916 3301.31C494.931 3317.35 471.211 3330.02 445.609 3338.45C421.995 3346.28 396.713 3350.47 370.472 3350.47C335.424 3350.47 302.152 3342.93 272.147 3329.41C241.503 3315.61 214.303 3295.58 192.11 3270.89C156.565 3231.37 133.911 3179.92 130.821 3123.29C197.543 3327.1 605.612 3293.16 582.815 2997.63C598.262 3026.88 607.885 3059.71 610.051 3094.58C610.37 3099.7 610.548 3104.82 610.548 3109.98Z" fill="url(#paint66_linear_205_237)"/>
<path opacity="0.55" d="M587.751 3212.37C579.584 3229.77 569.357 3246.02 557.462 3260.82C545.318 3275.94 531.362 3289.53 515.916 3301.31C494.93 3317.35 471.21 3330.02 445.608 3338.45C421.995 3346.28 396.712 3350.47 370.471 3350.47C335.424 3350.47 302.152 3342.93 272.147 3329.41C241.503 3315.61 214.303 3295.58 192.11 3270.89C156.565 3231.37 133.91 3179.92 130.821 3123.29C130.572 3118.88 130.466 3114.43 130.466 3109.95C130.466 3088.74 133.2 3068.18 138.349 3048.58C187.209 3149.26 320.191 3340.48 587.751 3212.37Z" fill="url(#paint67_linear_205_237)"/>
<path d="M627.344 3105.93C621.911 3103.58 616.229 3101.27 610.299 3098.95C607.991 3098.06 605.648 3097.14 603.269 3096.25C601.138 3097.42 598.972 3098.6 596.735 3099.74C601.493 3101.41 606.074 3103.12 610.512 3104.79C614.383 3106.28 618.147 3107.78 621.769 3109.27C665.835 3127.41 691.189 3146.2 688.845 3162.39C686.289 3180.14 650.744 3191.49 594.889 3195.58C550.822 3198.82 494.078 3197.5 430.908 3191.34C412.692 3189.53 393.907 3187.36 374.768 3184.76C370.543 3184.19 366.282 3183.59 361.985 3182.95C275.734 3170.46 198.573 3151.93 143.072 3131.93C140.728 3131.08 138.42 3130.22 136.148 3129.37C134.408 3128.73 132.739 3128.09 131.034 3127.45C81.0732 3108.17 51.8494 3087.82 54.335 3070.53C56.7851 3053.49 89.5244 3042.39 141.403 3037.91C141.971 3036.06 142.575 3034.21 143.214 3032.39C79.866 3038.23 38.9951 3053.17 35.7637 3075.72C32.7455 3096.61 62.431 3120.3 113.635 3142.43C115.588 3143.28 117.576 3144.1 119.6 3144.95C124.181 3146.84 128.939 3148.76 133.804 3150.61C183.02 3169.47 247.575 3186.68 320.049 3199.24C332.69 3201.45 345.615 3203.51 358.718 3205.4C364.648 3206.25 370.507 3207.07 376.366 3207.82C455.622 3218.28 528.558 3221.01 585.514 3216.96C655.751 3211.98 701.7 3196.61 705.144 3172.63C708.233 3151.75 678.548 3128.02 627.344 3105.93Z" fill="url(#paint68_linear_205_237)"/>
<path d="M563.818 2967.39C539.033 2943.77 477.14 2883.83 351.438 2895.64C237.526 2906.38 177.196 2973.37 153.76 3006.46C192.358 2925.45 274.881 2869.45 370.507 2869.45C449.798 2869.49 520.142 2908.02 563.818 2967.39Z" fill="url(#paint69_linear_205_237)"/>
</g>
<path d="M1370.87 392.996C1371.97 393.069 1372.92 392.234 1373 391.132L1374.19 373.172C1374.26 372.069 1373.42 371.117 1372.32 371.044C1371.22 370.971 1370.27 371.805 1370.19 372.907L1369.14 388.872L1353.17 387.814C1352.07 387.741 1351.12 388.575 1351.04 389.678C1350.97 390.78 1351.81 391.732 1352.91 391.805L1370.87 392.996ZM247.142 100.995C250.33 100.769 253.563 100.549 256.842 100.337L256.584 96.3458C253.297 96.5583 250.055 96.7782 246.858 97.0049L247.142 100.995ZM276.823 99.1667C283.285 98.8258 289.897 98.5126 296.651 98.2292L296.483 94.2327C289.716 94.5167 283.089 94.8306 276.612 95.1722L276.823 99.1667ZM316.453 97.4981C323.002 97.2886 329.668 97.1068 336.445 96.9543L336.355 92.9553C329.565 93.1081 322.887 93.2902 316.325 93.5001L316.453 97.4981ZM356.299 96.5974C362.827 96.5092 369.448 96.448 376.155 96.4152L376.136 92.4153C369.417 92.4481 362.785 92.5094 356.245 92.5978L356.299 96.5974ZM396.207 96.4025C402.716 96.4258 409.299 96.4758 415.952 96.5537L415.998 92.5539C409.335 92.4759 402.741 92.4258 396.221 92.4025L396.207 96.4025ZM435.926 96.8684C442.48 96.9982 449.095 97.155 455.767 97.3399L455.878 93.3415C449.195 93.1562 442.569 92.9991 436.005 92.8692L435.926 96.8684ZM475.671 97.9703C482.254 98.2047 488.887 98.4666 495.567 98.757L495.741 94.7607C489.05 94.4699 482.406 94.2076 475.814 93.9728L475.671 97.9703ZM515.419 99.6977C522.016 100.036 528.654 100.402 535.331 100.798L535.567 96.8046C528.88 96.4088 522.231 96.0419 515.624 95.7029L515.419 99.6977ZM555.145 102.048C561.746 102.491 568.381 102.962 575.048 103.463L575.347 99.4742C568.67 98.9729 562.024 98.5009 555.413 98.0574L555.145 102.048ZM594.833 105.028C601.431 105.576 608.058 106.153 614.708 106.761L615.072 102.777C608.41 102.169 601.773 101.591 595.164 101.041L594.833 105.028ZM634.468 108.646C641.059 109.302 647.672 109.988 654.303 110.705L654.732 106.728C648.09 106.01 641.467 105.323 634.864 104.666L634.468 108.646ZM674.037 112.92C680.618 113.688 687.214 114.485 693.822 115.314L694.32 111.345C687.7 110.515 681.092 109.716 674.5 108.947L674.037 112.92ZM713.526 117.872C720.093 118.755 726.669 119.668 733.253 120.613L733.822 116.654C727.225 115.707 720.637 114.792 714.059 113.908L713.526 117.872ZM752.918 123.529C759.468 124.531 766.023 125.565 772.58 126.632L773.223 122.684C766.653 121.615 760.085 120.579 753.523 119.575L752.918 123.529ZM792.195 129.921C798.725 131.049 805.256 132.21 811.784 133.405L812.505 129.471C805.963 128.273 799.419 127.11 792.876 125.98L792.195 129.921ZM831.335 137.088C837.843 138.348 844.346 139.643 850.842 140.973L851.645 137.055C845.134 135.722 838.617 134.424 832.095 133.161L831.335 137.088ZM870.312 145.07C876.794 146.472 883.266 147.909 889.727 149.383L890.616 145.483C884.141 144.006 877.653 142.565 871.157 141.161L870.312 145.07ZM909.096 153.919C915.548 155.471 921.985 157.059 928.405 158.686L929.388 154.808C922.951 153.178 916.498 151.585 910.031 150.03L909.096 153.919ZM947.653 163.69C954.068 165.402 960.464 167.153 966.838 168.943L967.92 165.092C961.529 163.297 955.116 161.542 948.684 159.826L947.653 163.69ZM985.941 174.448C992.312 176.331 998.659 178.256 1004.98 180.222L1006.17 176.402C999.829 174.43 993.464 172.501 987.075 170.612L985.941 174.448ZM1023.91 186.263C1030.23 188.332 1036.52 190.443 1042.77 192.599L1044.08 188.817C1037.8 186.655 1031.49 184.537 1025.15 182.462L1023.91 186.263ZM1061.5 199.219C1067.75 201.487 1073.97 203.8 1080.15 206.16L1081.58 202.423C1075.38 200.055 1069.14 197.734 1062.86 195.458L1061.5 199.219ZM1098.63 213.405C1104.81 215.889 1110.94 218.421 1117.03 221.001L1118.59 217.318C1112.48 214.728 1106.32 212.187 1100.13 209.694L1098.63 213.405ZM1135.23 228.925C1141.3 231.641 1147.33 234.409 1153.31 237.228L1155.01 233.611C1149.01 230.779 1142.96 228.001 1136.86 225.273L1135.23 228.925ZM1171.17 245.89C1177.12 248.858 1183.02 251.88 1188.86 254.957L1190.73 251.418C1184.86 248.327 1178.93 245.291 1172.95 242.31L1171.17 245.89ZM1206.32 264.421C1212.12 267.66 1217.87 270.957 1223.54 274.312L1225.58 270.869C1219.87 267.496 1214.1 264.183 1208.27 260.927L1206.32 264.421ZM1240.51 284.646C1246.13 288.177 1251.68 291.768 1257.16 295.422L1259.38 292.095C1253.87 288.42 1248.29 284.808 1242.63 281.258L1240.51 284.646ZM1273.53 306.696C1278.94 310.538 1284.26 314.445 1289.49 318.418L1291.91 315.231C1286.64 311.232 1281.29 307.301 1275.85 303.436L1273.53 306.696ZM1305.14 330.697C1310.28 334.87 1315.33 339.113 1320.28 343.426L1322.91 340.409C1317.92 336.065 1312.84 331.793 1307.66 327.591L1305.14 330.697ZM1335.05 356.756C1339.88 361.286 1344.61 365.889 1349.24 370.567L1352.08 367.755C1347.42 363.04 1342.65 358.401 1337.78 353.837L1335.05 356.756ZM1362.91 384.952C1365.13 387.388 1367.33 389.843 1369.5 392.318L1372.5 389.682C1370.32 387.187 1368.11 384.711 1365.86 382.255L1362.91 384.952Z" fill="#B1E1D9"/>
<path d="M426.545 640.421C426.777 641.501 427.841 642.188 428.921 641.955L446.517 638.164C447.597 637.932 448.284 636.868 448.051 635.788C447.819 634.708 446.755 634.021 445.675 634.254L430.034 637.624L426.664 621.983C426.431 620.903 425.368 620.216 424.288 620.449C423.208 620.681 422.521 621.745 422.754 622.825L426.545 640.421ZM430.18 641.085C432.018 638.238 433.87 635.421 435.736 632.634L432.413 630.408C430.534 633.214 428.669 636.05 426.82 638.915L430.18 641.085ZM447.108 616.259C451.029 610.814 455.009 605.489 459.045 600.282L455.883 597.832C451.819 603.076 447.811 608.439 443.862 613.922L447.108 616.259ZM471.521 584.769C475.822 579.615 480.182 574.585 484.597 569.678L481.623 567.003C477.175 571.947 472.783 577.014 468.45 582.206L471.521 584.769ZM498.159 555.164C502.838 550.344 507.574 545.652 512.364 541.085L509.604 538.19C504.776 542.792 500.004 547.521 495.289 552.378L498.159 555.164ZM526.979 527.686C532.018 523.245 537.112 518.934 542.258 514.75L539.735 511.646C534.548 515.863 529.413 520.209 524.334 524.686L526.979 527.686ZM557.935 502.515C563.286 498.508 568.688 494.631 574.139 490.88L571.871 487.585C566.377 491.366 560.931 495.274 555.537 499.314L557.935 502.515ZM590.781 479.913C596.413 476.359 602.093 472.934 607.816 469.634L605.818 466.169C600.049 469.495 594.324 472.948 588.646 476.529L590.781 479.913ZM625.304 460.003C631.197 456.908 637.131 453.938 643.104 451.089L641.382 447.479C635.364 450.349 629.383 453.343 623.444 456.462L625.304 460.003ZM661.27 442.85C667.386 440.214 673.538 437.701 679.723 435.306L678.278 431.576C672.048 433.989 665.849 436.521 659.687 439.176L661.27 442.85ZM698.428 428.452C704.724 426.274 711.049 424.213 717.401 422.266L716.228 418.442C709.832 420.403 703.462 422.478 697.121 424.672L698.428 428.452ZM736.558 416.754C742.985 415.024 749.434 413.405 755.903 411.894L754.993 407.999C748.481 409.52 741.989 411.15 735.518 412.892L736.558 416.754ZM775.401 407.672C781.924 406.37 788.464 405.173 795.015 404.077L794.355 400.132C787.763 401.234 781.183 402.439 774.618 403.75L775.401 407.672ZM814.749 401.085C821.344 400.186 827.948 399.386 834.558 398.682L834.134 394.705C827.487 395.413 820.844 396.217 814.209 397.121L814.749 401.085ZM854.425 396.85C861.066 396.331 867.71 395.906 874.351 395.569L874.148 391.574C867.471 391.913 860.792 392.341 854.113 392.862L854.425 396.85ZM894.291 394.822C900.953 394.66 907.609 394.585 914.256 394.592L914.26 390.592C907.58 390.585 900.89 390.661 894.194 390.824L894.291 394.822ZM934.226 394.86C940.884 395.031 947.53 395.282 954.158 395.61L954.355 391.615C947.696 391.285 941.019 391.033 934.328 390.861L934.226 394.86ZM974.11 396.828C980.766 397.311 987.401 397.868 994.011 398.497L994.389 394.515C987.751 393.884 981.086 393.324 974.399 392.838L974.11 396.828ZM1013.85 400.6C1020.49 401.377 1027.11 402.223 1033.69 403.134L1034.24 399.172C1027.63 398.257 1020.99 397.408 1014.31 396.627L1013.85 400.6ZM1053.44 406.076C1060.04 407.128 1066.6 408.243 1073.11 409.417L1073.82 405.481C1067.28 404.302 1060.69 403.182 1054.07 402.126L1053.44 406.076ZM1092.77 413.16C1099.33 414.476 1105.84 415.849 1112.3 417.275L1113.16 413.369C1106.68 411.938 1100.15 410.559 1093.56 409.238L1092.77 413.16ZM1131.75 421.765C1138.29 423.34 1144.76 424.967 1151.17 426.64L1152.18 422.77C1145.75 421.09 1139.25 419.457 1132.68 417.876L1131.75 421.765ZM1170.44 431.866C1176.89 433.681 1183.26 435.54 1189.55 437.439L1190.71 433.609C1184.39 431.704 1178 429.837 1171.52 428.016L1170.44 431.866ZM1208.7 443.414C1215.12 445.487 1221.45 447.596 1227.67 449.738L1228.97 445.955C1222.72 443.806 1216.37 441.688 1209.92 439.607L1208.7 443.414ZM1246.46 456.408C1252.79 458.725 1258.99 461.07 1265.07 463.436L1266.52 459.709C1260.42 457.333 1254.19 454.979 1247.83 452.652L1246.46 456.408ZM1283.68 470.909C1289.98 473.518 1296.12 476.143 1302.09 478.775L1303.7 475.115C1297.7 472.47 1291.54 469.834 1285.21 467.213L1283.68 470.909ZM1320.28 487.062C1323.28 488.475 1326.23 489.888 1329.12 491.298L1330.88 487.702C1327.96 486.284 1325 484.863 1321.98 483.443L1320.28 487.062Z" fill="#B1E1D9"/>
<path d="M1512.17 1114.6C1512.78 1113.67 1512.52 1112.43 1511.6 1111.83L1496.55 1101.95C1495.63 1101.34 1494.39 1101.6 1493.78 1102.52C1493.18 1103.45 1493.43 1104.69 1494.36 1105.29L1507.73 1114.07L1498.95 1127.45C1498.34 1128.37 1498.6 1129.61 1499.52 1130.22C1500.45 1130.82 1501.69 1130.57 1502.29 1129.64L1512.17 1114.6ZM504.679 856.171C503.297 859.209 501.967 862.285 500.694 865.395L504.396 866.91C505.649 863.848 506.958 860.82 508.32 857.829L504.679 856.171ZM493.809 884.334C491.777 890.717 489.997 897.208 488.503 903.782L492.404 904.669C493.872 898.209 495.621 891.827 497.621 885.548L493.809 884.334ZM484.918 923.628C484.029 930.283 483.451 936.994 483.214 943.735L487.212 943.876C487.444 937.27 488.011 930.689 488.883 924.158L484.918 923.628ZM483.55 963.916C484.015 970.598 484.842 977.284 486.061 983.95L489.995 983.231C488.805 976.715 487.996 970.176 487.54 963.638L483.55 963.916ZM490.828 1003.57C492.771 1009.93 495.104 1016.25 497.852 1022.5L501.514 1020.89C498.83 1014.79 496.552 1008.62 494.654 1002.4L490.828 1003.57ZM507.036 1040.48C510.369 1046.17 514.082 1051.78 518.197 1057.3L521.404 1054.91C517.376 1049.51 513.745 1044.02 510.488 1038.46L507.036 1040.48ZM531.096 1072.82C535.54 1077.65 540.33 1082.38 545.481 1087.01L548.155 1084.03C543.095 1079.49 538.395 1074.84 534.038 1070.11L531.096 1072.82ZM561.101 1099.86C566.268 1103.77 571.728 1107.58 577.491 1111.29L579.657 1107.93C573.975 1104.27 568.597 1100.51 563.512 1096.67L561.101 1099.86ZM594.685 1121.55C600.409 1124.72 606.388 1127.8 612.628 1130.78L614.353 1127.17C608.182 1124.22 602.274 1121.18 596.622 1118.05L594.685 1121.55ZM631.041 1138.98C637.006 1141.46 643.181 1143.85 649.573 1146.17L650.933 1142.4C644.598 1140.11 638.48 1137.74 632.574 1135.29L631.041 1138.98ZM668.775 1152.65C674.948 1154.59 681.303 1156.46 687.844 1158.25L688.902 1154.4C682.408 1152.62 676.1 1150.76 669.976 1148.83L668.775 1152.65ZM707.321 1163.24C713.671 1164.75 720.183 1166.2 726.857 1167.58L727.666 1163.66C721.03 1162.29 714.558 1160.85 708.248 1159.35L707.321 1163.24ZM746.534 1171.35C752.971 1172.5 759.55 1173.58 766.272 1174.6L766.872 1170.64C760.182 1169.63 753.637 1168.55 747.233 1167.41L746.534 1171.35ZM786.18 1177.38C792.636 1178.21 799.215 1178.98 805.92 1179.69L806.344 1175.71C799.666 1175 793.115 1174.23 786.688 1173.41L786.18 1177.38ZM826.162 1181.64C832.584 1182.19 839.116 1182.7 845.759 1183.15L846.032 1179.16C839.412 1178.71 832.904 1178.21 826.506 1177.65L826.162 1181.64ZM866.02 1184.36C872.52 1184.69 879.12 1184.98 885.822 1185.21L885.964 1181.22C879.282 1180.98 872.703 1180.7 866.224 1180.36L866.02 1184.36ZM905.759 1185.77C912.472 1185.91 919.283 1186 926.193 1186.05L926.219 1182.05C919.328 1182 912.536 1181.91 905.842 1181.77L905.759 1185.77ZM945.748 1186.05C952.352 1186.01 959.044 1185.92 965.822 1185.8L965.748 1181.8C958.986 1181.92 952.311 1182.01 945.723 1182.05L945.748 1186.05ZM986.118 1185.3C992.574 1185.11 999.106 1184.87 1005.72 1184.6L1005.55 1180.61C998.956 1180.88 992.438 1181.11 985.997 1181.3L986.118 1185.3ZM1025.77 1183.68C1032.48 1183.33 1039.26 1182.95 1046.12 1182.53L1045.87 1178.54C1039.03 1178.96 1032.26 1179.34 1025.57 1179.68L1025.77 1183.68ZM1065.64 1181.24C1072.21 1180.78 1078.86 1180.28 1085.57 1179.74L1085.25 1175.76C1078.55 1176.29 1071.92 1176.79 1065.36 1177.25L1065.64 1181.24ZM1105.92 1178.04C1112.39 1177.47 1118.93 1176.86 1125.52 1176.23L1125.14 1172.25C1118.55 1172.88 1112.03 1173.48 1105.57 1174.05L1105.92 1178.04ZM1145.25 1174.25C1151.88 1173.56 1158.58 1172.84 1165.34 1172.09L1164.9 1168.11C1158.15 1168.86 1151.46 1169.59 1144.83 1170.27L1145.25 1174.25ZM1185.43 1169.77C1191.86 1169.01 1198.35 1168.22 1204.89 1167.39L1204.39 1163.42C1197.86 1164.25 1191.38 1165.04 1184.96 1165.8L1185.43 1169.77ZM1224.68 1164.84C1231.33 1163.96 1238.04 1163.05 1244.8 1162.12L1244.25 1158.15C1237.5 1159.09 1230.8 1160 1224.15 1160.88L1224.68 1164.84ZM1264.63 1159.3C1271.06 1158.37 1277.54 1157.41 1284.07 1156.43L1283.48 1152.47C1276.95 1153.46 1270.48 1154.41 1264.05 1155.35L1264.63 1159.3ZM1303.82 1153.39C1310.45 1152.36 1317.13 1151.29 1323.87 1150.2L1323.22 1146.25C1316.5 1147.34 1309.82 1148.41 1303.2 1149.44L1303.82 1153.39ZM1343.67 1146.93C1350.08 1145.86 1356.53 1144.76 1363.03 1143.64L1362.35 1139.7C1355.86 1140.82 1349.41 1141.92 1343.01 1142.99L1343.67 1146.93ZM1382.65 1140.2C1389.24 1139.03 1395.87 1137.84 1402.55 1136.62L1401.83 1132.68C1395.16 1133.9 1388.53 1135.1 1381.95 1136.27L1382.65 1140.2ZM1422.59 1132.91C1428.95 1131.72 1435.35 1130.5 1441.79 1129.27L1441.03 1125.34C1434.6 1126.57 1428.21 1127.79 1421.85 1128.98L1422.59 1132.91ZM1461.23 1125.49C1467.75 1124.21 1474.31 1122.9 1480.91 1121.58L1480.13 1117.66C1473.53 1118.98 1466.97 1120.28 1460.46 1121.56L1461.23 1125.49ZM1500.85 1117.53C1504.19 1116.85 1507.54 1116.16 1510.91 1115.46L1510.09 1111.54C1506.73 1112.24 1503.38 1112.93 1500.04 1113.61L1500.85 1117.53Z" fill="#B1E1D9"/>
<path d="M523.911 1555.71C524.582 1556.59 525.837 1556.76 526.715 1556.09L541.015 1545.16C541.893 1544.49 542.06 1543.23 541.389 1542.35C540.719 1541.48 539.463 1541.31 538.586 1541.98L525.874 1551.7L516.158 1538.98C515.487 1538.11 514.232 1537.94 513.354 1538.61C512.476 1539.28 512.309 1540.54 512.98 1541.41L523.911 1555.71ZM527.482 1554.76C527.932 1551.39 528.478 1548.06 529.117 1544.77L525.19 1544.01C524.536 1547.38 523.978 1550.79 523.518 1554.24L527.482 1554.76ZM534.084 1525.4C536.133 1519.02 538.555 1512.79 541.334 1506.7L537.696 1505.04C534.853 1511.26 532.374 1517.64 530.276 1524.18L534.084 1525.4ZM550.691 1488.97C554.102 1483.3 557.844 1477.76 561.902 1472.36L558.704 1469.96C554.566 1475.47 550.748 1481.11 547.263 1486.91L550.691 1488.97ZM574.722 1456.9C579.182 1451.99 583.919 1447.2 588.922 1442.54L586.194 1439.61C581.115 1444.35 576.3 1449.21 571.762 1454.21L574.722 1456.9ZM604.143 1429.36C609.273 1425.22 614.622 1421.19 620.182 1417.26L617.872 1413.99C612.247 1417.97 606.831 1422.05 601.633 1426.24L604.143 1429.36ZM637.025 1406.04C642.657 1402.51 648.467 1399.06 654.448 1395.7L652.489 1392.21C646.454 1395.6 640.588 1399.08 634.899 1402.65L637.025 1406.04ZM672.187 1386.23C678.14 1383.21 684.237 1380.27 690.472 1377.4L688.799 1373.77C682.521 1376.66 676.378 1379.62 670.377 1382.67L672.187 1386.23ZM708.966 1369.27C715.102 1366.69 721.354 1364.18 727.716 1361.73L726.279 1358C719.881 1360.46 713.592 1362.99 707.417 1365.58L708.966 1369.27ZM746.822 1354.68C753.082 1352.46 759.437 1350.3 765.88 1348.2L764.639 1344.4C758.166 1346.51 751.78 1348.68 745.487 1350.91L746.822 1354.68ZM785.318 1342.11C791.697 1340.18 798.153 1338.31 804.681 1336.49L803.606 1332.64C797.052 1334.47 790.569 1336.35 784.164 1338.28L785.318 1342.11ZM824.312 1331.22C830.791 1329.54 837.333 1327.91 843.935 1326.33L843.002 1322.44C836.378 1324.03 829.813 1325.66 823.311 1327.34L824.312 1331.22ZM863.714 1321.75C870.264 1320.29 876.867 1318.87 883.518 1317.5L882.708 1313.58C876.037 1314.96 869.415 1316.38 862.844 1317.85L863.714 1321.75ZM903.415 1313.53C910.018 1312.26 916.663 1311.03 923.347 1309.84L922.645 1305.9C915.944 1307.1 909.281 1308.33 902.66 1309.6L903.415 1313.53ZM943.341 1306.4C949.983 1305.3 956.658 1304.24 963.364 1303.21L962.757 1299.26C956.037 1300.29 949.345 1301.35 942.688 1302.46L943.341 1306.4ZM983.437 1300.25C990.109 1299.3 996.807 1298.39 1003.53 1297.5L1003.01 1293.54C996.273 1294.42 989.561 1295.34 982.875 1296.29L983.437 1300.25ZM1023.66 1294.97C1030.36 1294.16 1037.07 1293.38 1043.8 1292.63L1043.36 1288.65C1036.62 1289.4 1029.89 1290.18 1023.18 1290.99L1023.66 1294.97ZM1063.99 1290.48C1070.71 1289.8 1077.43 1289.14 1084.17 1288.51L1083.8 1284.53C1077.05 1285.16 1070.31 1285.81 1063.58 1286.5L1063.99 1290.48ZM1104.39 1286.72C1111.13 1286.15 1117.87 1285.61 1124.61 1285.1L1124.3 1281.11C1117.55 1281.62 1110.8 1282.17 1104.05 1282.74L1104.39 1286.72ZM1144.85 1283.64C1151.6 1283.17 1158.35 1282.74 1165.1 1282.33L1164.86 1278.34C1158.1 1278.75 1151.34 1279.18 1144.57 1279.64L1144.85 1283.64ZM1185.34 1281.18C1192.11 1280.82 1198.88 1280.48 1205.63 1280.17L1205.45 1276.18C1198.69 1276.49 1191.91 1276.82 1185.13 1277.18L1185.34 1281.18ZM1225.87 1279.31C1232.66 1279.05 1239.43 1278.81 1246.19 1278.59L1246.06 1274.59C1239.3 1274.81 1232.51 1275.05 1225.71 1275.32L1225.87 1279.31ZM1266.42 1278.01C1273.23 1277.84 1280.01 1277.69 1286.77 1277.56L1286.69 1273.56C1279.93 1273.69 1273.13 1273.84 1266.31 1274.01L1266.42 1278.01ZM1306.98 1277.25C1313.81 1277.16 1320.6 1277.1 1327.36 1277.06L1327.33 1273.06C1320.57 1273.1 1313.77 1273.16 1306.93 1273.25L1306.98 1277.25ZM1347.56 1277.01C1354.4 1277.01 1361.2 1277.04 1367.95 1277.09L1367.98 1273.09C1361.22 1273.04 1354.41 1273.01 1347.56 1273.01L1347.56 1277.01ZM1388.16 1277.29C1395 1277.38 1401.8 1277.5 1408.53 1277.63L1408.61 1273.63C1401.87 1273.5 1395.06 1273.38 1388.21 1273.29L1388.16 1277.29ZM1428.76 1278.09C1435.61 1278.27 1442.38 1278.47 1449.09 1278.69L1449.22 1274.7C1442.51 1274.48 1435.72 1274.27 1428.87 1274.1L1428.76 1278.09ZM1469.37 1279.43C1476.2 1279.69 1482.94 1279.98 1489.59 1280.29L1489.77 1276.3C1483.11 1275.99 1476.36 1275.7 1469.53 1275.43L1469.37 1279.43ZM1509.96 1281.31C1516.76 1281.67 1523.45 1282.06 1530.04 1282.46L1530.28 1278.47C1523.69 1278.07 1516.98 1277.68 1510.17 1277.32L1509.96 1281.31ZM1550.44 1283.79C1553.78 1284.02 1557.08 1284.25 1560.35 1284.49L1560.65 1280.51C1557.37 1280.27 1554.06 1280.03 1550.72 1279.8L1550.44 1283.79Z" fill="#B1E1D9"/>
<path d="M1348.74 2322.35C1349.76 2322.77 1350.93 2322.28 1351.35 2321.26L1358.18 2304.6C1358.6 2303.58 1358.11 2302.41 1357.09 2302C1356.07 2301.58 1354.9 2302.07 1354.48 2303.09L1348.41 2317.89L1333.6 2311.82C1332.58 2311.4 1331.41 2311.89 1331 2312.91C1330.58 2313.93 1331.07 2315.1 1332.09 2315.52L1348.74 2322.35ZM569.585 1881.22C571.573 1878.64 573.612 1876.06 575.699 1873.49L572.595 1870.97C570.485 1873.57 568.425 1876.17 566.415 1878.78L569.585 1881.22ZM588.625 1858.4C593.014 1853.53 597.578 1848.72 602.311 1843.99L599.483 1841.16C594.701 1845.95 590.089 1850.8 585.655 1855.72L588.625 1858.4ZM616.723 1830.32C621.61 1825.91 626.648 1821.61 631.833 1817.42L629.319 1814.31C624.077 1818.54 618.984 1822.9 614.046 1827.34L616.723 1830.32ZM647.617 1805.36C652.962 1801.51 658.441 1797.78 664.05 1794.21L661.9 1790.84C656.226 1794.45 650.683 1798.22 645.278 1802.11L647.617 1805.36ZM681.104 1784.05C686.86 1780.85 692.736 1777.81 698.726 1774.96L697.006 1771.35C690.938 1774.24 684.988 1777.31 679.16 1780.55L681.104 1784.05ZM716.89 1767.02C723.002 1764.59 729.219 1762.35 735.539 1760.32L734.316 1756.51C727.908 1758.57 721.604 1760.84 715.41 1763.3L716.89 1767.02ZM754.603 1754.93C760.979 1753.37 767.447 1752.03 774.005 1750.93L773.341 1746.98C766.686 1748.1 760.122 1749.46 753.653 1751.05L754.603 1754.93ZM793.659 1748.37C800.186 1747.76 806.794 1747.39 813.477 1747.28L813.408 1743.28C806.623 1743.39 799.916 1743.77 793.29 1744.38L793.659 1748.37ZM833.248 1747.67C839.742 1748.04 846.302 1748.65 852.924 1749.52L853.443 1745.55C846.723 1744.67 840.067 1744.05 833.475 1743.67L833.248 1747.67ZM872.452 1752.78C878.844 1754.08 885.29 1755.63 891.786 1757.42L892.851 1753.56C886.267 1751.75 879.733 1750.18 873.251 1748.86L872.452 1752.78ZM910.715 1763.32C916.819 1765.44 922.965 1767.78 929.149 1770.36L930.688 1766.67C924.43 1764.06 918.209 1761.69 912.028 1759.54L910.715 1763.32ZM947.281 1778.55C953.136 1781.39 959.023 1784.45 964.94 1787.73L966.878 1784.23C960.899 1780.92 954.949 1777.83 949.029 1774.95L947.281 1778.55ZM981.948 1797.71C987.519 1801.16 993.114 1804.81 998.734 1808.66L1001 1805.36C995.326 1801.47 989.679 1797.79 984.055 1794.31L981.948 1797.71ZM1014.74 1820.14C1019.97 1824.06 1025.21 1828.14 1030.46 1832.42L1032.99 1829.31C1027.69 1825.01 1022.41 1820.89 1017.14 1816.94L1014.74 1820.14ZM1045.64 1845.21C1050.54 1849.5 1055.46 1853.94 1060.38 1858.55L1063.12 1855.63C1058.16 1850.99 1053.21 1846.52 1048.27 1842.2L1045.64 1845.21ZM1074.71 1872.37C1079.33 1876.97 1083.96 1881.72 1088.61 1886.61L1091.51 1883.86C1086.84 1878.94 1082.18 1874.17 1077.53 1869.54L1074.71 1872.37ZM1102.08 1901.21C1106.47 1906.09 1110.87 1911.11 1115.28 1916.27L1118.32 1913.67C1113.89 1908.49 1109.47 1903.44 1105.05 1898.53L1102.08 1901.21ZM1127.92 1931.42C1132.13 1936.58 1136.34 1941.87 1140.56 1947.29L1143.72 1944.83C1139.48 1939.39 1135.24 1934.08 1131.02 1928.89L1127.92 1931.42ZM1152.41 1962.81C1156.36 1968.1 1160.31 1973.5 1164.27 1979.02L1167.52 1976.68C1163.55 1971.15 1159.58 1965.72 1155.61 1960.42L1152.41 1962.81ZM1175.72 1995.28C1179.42 2000.63 1183.12 2006.09 1186.83 2011.65L1190.16 2009.43C1186.44 2003.85 1182.73 1998.37 1179.01 1993L1175.72 1995.28ZM1197.95 2028.64C1201.44 2034.06 1204.93 2039.58 1208.42 2045.19L1211.82 2043.08C1208.31 2037.45 1204.81 2031.92 1201.31 2026.47L1197.95 2028.64ZM1218.82 2062.18C1222.28 2067.92 1225.74 2073.75 1229.2 2079.68L1232.66 2077.66C1229.19 2071.72 1225.72 2065.87 1222.25 2060.11L1218.82 2062.18ZM1238.93 2096.58C1242.17 2102.3 1245.41 2108.1 1248.66 2113.99L1252.16 2112.06C1248.91 2106.16 1245.66 2100.34 1242.41 2094.61L1238.93 2096.58ZM1258.39 2131.9C1261.43 2137.57 1264.47 2143.32 1267.5 2149.14L1271.05 2147.29C1268.01 2141.46 1264.96 2135.7 1261.92 2130.01L1258.39 2131.9ZM1276.61 2166.81C1279.64 2172.78 1282.67 2178.82 1285.7 2184.94L1289.29 2183.17C1286.25 2177.03 1283.21 2170.98 1280.17 2165L1276.61 2166.81ZM1294.39 2202.68C1297.23 2208.55 1300.07 2214.49 1302.9 2220.5L1306.52 2218.79C1303.68 2212.77 1300.83 2206.82 1297.99 2200.94L1294.39 2202.68ZM1311.41 2238.73C1314.21 2244.79 1317 2250.92 1319.8 2257.11L1323.44 2255.47C1320.65 2249.26 1317.85 2243.12 1315.04 2237.05L1311.41 2238.73ZM1327.77 2274.97C1330.42 2280.99 1333.07 2287.07 1335.73 2293.21L1339.4 2291.62C1336.74 2285.47 1334.09 2279.39 1331.43 2273.36L1327.77 2274.97ZM1343.68 2311.82C1345.01 2314.96 1346.33 2318.11 1347.65 2321.27L1351.35 2319.73C1350.02 2316.56 1348.69 2313.4 1347.37 2310.26L1343.68 2311.82Z" fill="#B1E1D9"/>
<path d="M575.869 3227.03C574.783 3226.83 573.738 3227.55 573.534 3228.63L570.214 3246.32C570.01 3247.41 570.725 3248.45 571.81 3248.66C572.896 3248.86 573.941 3248.15 574.145 3247.06L577.097 3231.33L592.822 3234.29C593.908 3234.49 594.953 3233.78 595.157 3232.69C595.361 3231.6 594.646 3230.56 593.56 3230.35L575.869 3227.03ZM573.849 3230.13C575.844 3233.05 577.908 3235.85 580.039 3238.54L583.175 3236.06C581.103 3233.44 579.094 3230.71 577.151 3227.87L573.849 3230.13ZM593.827 3253.57C598.875 3258.3 604.205 3262.55 609.804 3266.34L612.046 3263.03C606.622 3259.36 601.457 3255.24 596.563 3250.65L593.827 3253.57ZM627.655 3276.46C633.785 3279.33 640.163 3281.75 646.775 3283.74L647.928 3279.91C641.494 3277.97 635.297 3275.62 629.351 3272.84L627.655 3276.46ZM666.635 3288.34C673.197 3289.43 679.948 3290.17 686.875 3290.57L687.105 3286.58C680.312 3286.18 673.705 3285.46 667.294 3284.39L666.635 3288.34ZM707.282 3290.79C713.964 3290.57 720.787 3290.07 727.742 3289.31L727.307 3285.34C720.446 3286.09 713.724 3286.58 707.15 3286.79L707.282 3290.79ZM747.707 3286.47C754.233 3285.34 760.861 3284 767.585 3282.46L766.692 3278.56C760.033 3280.09 753.475 3281.41 747.023 3282.53L747.707 3286.47ZM787.435 3277.42C793.785 3275.65 800.211 3273.72 806.709 3271.64L805.487 3267.83C799.036 3269.9 792.66 3271.81 786.363 3273.56L787.435 3277.42ZM825.931 3265.09C832.216 3262.84 838.56 3260.45 844.959 3257.93L843.494 3254.2C837.13 3256.71 830.824 3259.09 824.579 3261.33L825.931 3265.09ZM863.619 3250.28C869.812 3247.65 876.052 3244.91 882.334 3242.06L880.681 3238.41C874.427 3241.25 868.217 3243.98 862.054 3246.6L863.619 3250.28ZM900.52 3233.57C906.587 3230.65 912.691 3227.65 918.826 3224.56L917.025 3220.98C910.912 3224.07 904.833 3227.06 898.79 3229.96L900.52 3233.57ZM936.695 3215.34C942.649 3212.21 948.629 3209 954.634 3205.71L952.713 3202.2C946.726 3205.48 940.765 3208.68 934.832 3211.81L936.695 3215.34ZM972.216 3195.9C978.072 3192.58 983.949 3189.19 989.843 3185.74L987.821 3182.29C981.942 3185.73 976.082 3189.11 970.242 3192.42L972.216 3195.9ZM1007.15 3175.45C1012.92 3171.97 1018.71 3168.43 1024.51 3164.83L1022.4 3161.43C1016.61 3165.02 1010.84 3168.55 1005.08 3172.02L1007.15 3175.45ZM1041.56 3154.13C1047.25 3150.51 1052.95 3146.84 1058.66 3143.13L1056.48 3139.78C1050.78 3143.48 1045.09 3147.14 1039.41 3150.75L1041.56 3154.13ZM1075.49 3132.07C1081.1 3128.34 1086.71 3124.56 1092.33 3120.75L1090.08 3117.44C1084.48 3121.25 1078.87 3125.01 1073.27 3128.73L1075.49 3132.07ZM1108.98 3109.35C1114.52 3105.52 1120.06 3101.66 1125.59 3097.76L1123.29 3094.49C1117.76 3098.38 1112.23 3102.24 1106.71 3106.06L1108.98 3109.35ZM1142.08 3086.05C1147.55 3082.13 1153.01 3078.19 1158.47 3074.21L1156.12 3070.98C1150.67 3074.95 1145.21 3078.89 1139.75 3082.8L1142.08 3086.05ZM1174.79 3062.24C1180.2 3058.24 1185.61 3054.21 1191 3050.16L1188.6 3046.96C1183.21 3051.01 1177.82 3055.03 1172.41 3059.02L1174.79 3062.24ZM1207.15 3037.96C1212.51 3033.88 1217.86 3029.78 1223.2 3025.66L1220.75 3022.49C1215.42 3026.61 1210.08 3030.7 1204.73 3034.78L1207.15 3037.96ZM1239.16 3013.26C1244.48 3009.1 1249.79 3004.93 1255.07 3000.74L1252.59 2997.61C1247.31 3001.79 1242.01 3005.95 1236.7 3010.11L1239.16 3013.26ZM1270.87 2988.15C1276.15 2983.92 1281.4 2979.69 1286.63 2975.44L1284.11 2972.33C1278.89 2976.57 1273.64 2980.81 1268.37 2985.03L1270.87 2988.15ZM1302.29 2962.66C1307.52 2958.37 1312.72 2954.08 1317.9 2949.78L1315.34 2946.71C1310.17 2951 1304.97 2955.29 1299.75 2959.57L1302.29 2962.66ZM1333.42 2936.82C1338.6 2932.48 1343.75 2928.13 1348.86 2923.79L1346.27 2920.74C1341.16 2925.08 1336.02 2929.42 1330.85 2933.76L1333.42 2936.82ZM1364.27 2910.64C1369.4 2906.24 1374.49 2901.85 1379.54 2897.47L1376.92 2894.45C1371.87 2898.83 1366.79 2903.21 1361.67 2907.6L1364.27 2910.64ZM1394.84 2884.14C1399.92 2879.69 1404.95 2875.26 1409.94 2870.84L1407.29 2867.85C1402.3 2872.26 1397.27 2876.69 1392.21 2881.13L1394.84 2884.14ZM1425.13 2857.32C1430.16 2852.82 1435.13 2848.35 1440.06 2843.89L1437.37 2840.93C1432.45 2845.38 1427.48 2849.85 1422.47 2854.33L1425.13 2857.32ZM1455.14 2830.18C1460.12 2825.64 1465.04 2821.11 1469.91 2816.62L1467.19 2813.68C1462.33 2818.17 1457.42 2822.69 1452.44 2827.23L1455.14 2830.18ZM1484.86 2802.73C1489.8 2798.12 1494.68 2793.54 1499.49 2789L1496.74 2786.09C1491.94 2790.63 1487.07 2795.2 1482.13 2799.81L1484.86 2802.73ZM1514.27 2774.96C1519.19 2770.27 1524.03 2765.62 1528.78 2761.02L1526 2758.15C1521.25 2762.74 1516.42 2767.38 1511.51 2772.07L1514.27 2774.96ZM1543.34 2746.87C1545.72 2744.54 1548.07 2742.22 1550.4 2739.92L1547.6 2737.08C1545.27 2739.37 1542.91 2741.68 1540.54 2744.01L1543.34 2746.87Z" fill="#B1E1D9"/>
</g>
<defs>
<radialGradient id="paint0_radial_205_237" cx="0" cy="0" r="1" gradientUnits="userSpaceOnUse" gradientTransform="translate(122.003 180.99) scale(173.033 173.163)">
<stop stop-color="#6CFFED"/>
<stop offset="1" stop-color="#60FFCF" stop-opacity="0"/>
</radialGradient>
<linearGradient id="paint1_linear_205_237" x1="-1.40292" y1="257.069" x2="254.151" y2="137.598" gradientUnits="userSpaceOnUse">
<stop stop-color="#37E2C3"/>
<stop offset="1" stop-color="#37E29A" stop-opacity="0.2"/>
</linearGradient>
<linearGradient id="paint2_linear_205_237" x1="94.0825" y1="389.758" x2="92.671" y2="31.4703" gradientUnits="userSpaceOnUse">
<stop stop-color="#2ECC9D"/>
<stop offset="1" stop-color="#2ECCC3" stop-opacity="0.2"/>
</linearGradient>
<linearGradient id="paint3_linear_205_237" x1="250.493" y1="36.0158" x2="162.531" y2="133.403" gradientUnits="userSpaceOnUse">
<stop stop-color="#369F8C"/>
<stop offset="1" stop-color="#48957E" stop-opacity="0.2"/>
</linearGradient>
<radialGradient id="paint4_radial_205_237" cx="0" cy="0" r="1" gradientUnits="userSpaceOnUse" gradientTransform="translate(1515 507.979) scale(219.304 220.396)">
<stop stop-color="#6CFFED"/>
<stop offset="1" stop-color="#60FFF5" stop-opacity="0"/>
</radialGradient>
<linearGradient id="paint5_linear_205_237" x1="1482.9" y1="282.995" x2="1556.48" y2="792.893" gradientUnits="userSpaceOnUse">
<stop stop-color="#71FFCC"/>
<stop offset="1" stop-color="#71FFD4" stop-opacity="0"/>
</linearGradient>
<linearGradient id="paint6_linear_205_237" x1="1488.98" y1="282.116" x2="1562.56" y2="792.011" gradientUnits="userSpaceOnUse">
<stop stop-color="#71FFCC"/>
<stop offset="1" stop-color="#71FFD4" stop-opacity="0"/>
</linearGradient>
<linearGradient id="paint7_linear_205_237" x1="1490.45" y1="281.905" x2="1564.03" y2="791.802" gradientUnits="userSpaceOnUse">
<stop stop-color="#71FFC3"/>
<stop offset="1" stop-color="#71FFE5" stop-opacity="0"/>
</linearGradient>
<linearGradient id="paint8_linear_205_237" x1="1493.3" y1="281.493" x2="1566.88" y2="791.391" gradientUnits="userSpaceOnUse">
<stop stop-color="#71FFD4"/>
<stop offset="1" stop-color="#71FFE5" stop-opacity="0"/>
</linearGradient>
<linearGradient id="paint9_linear_205_237" x1="1524.39" y1="277.007" x2="1597.97" y2="786.909" gradientUnits="userSpaceOnUse">
<stop stop-color="#71FFE5"/>
<stop offset="1" stop-color="#71FFE5" stop-opacity="0"/>
</linearGradient>
<linearGradient id="paint10_linear_205_237" x1="1470.28" y1="284.815" x2="1543.86" y2="794.712" gradientUnits="userSpaceOnUse">
<stop stop-color="#71FFE5"/>
<stop offset="1" stop-color="#71FFE5" stop-opacity="0"/>
</linearGradient>
<linearGradient id="paint11_linear_205_237" x1="1417.39" y1="292.447" x2="1490.97" y2="802.345" gradientUnits="userSpaceOnUse">
<stop stop-color="#71FFE5"/>
<stop offset="1" stop-color="#71FFE5" stop-opacity="0"/>
</linearGradient>
<linearGradient id="paint12_linear_205_237" x1="1529.9" y1="276.214" x2="1603.48" y2="786.11" gradientUnits="userSpaceOnUse">
<stop stop-color="#71FFDD"/>
<stop offset="1" stop-color="#71FFE5" stop-opacity="0"/>
</linearGradient>
<linearGradient id="paint13_linear_205_237" x1="1489.32" y1="688.621" x2="1525.79" y2="434.578" gradientUnits="userSpaceOnUse">
<stop stop-color="#27D8AE"/>
<stop offset="1" stop-color="#27E6F2" stop-opacity="0"/>
</linearGradient>
<linearGradient id="paint14_linear_205_237" x1="1521.39" y1="687.204" x2="1507.41" y2="562.025" gradientUnits="userSpaceOnUse">
<stop stop-color="#27A98A"/>
<stop offset="1" stop-color="#27B6AD" stop-opacity="0"/>
</linearGradient>
<linearGradient id="paint15_linear_205_237" x1="1685.29" y1="284.4" x2="1546.07" y2="449.18" gradientUnits="userSpaceOnUse">
<stop stop-color="#B8FFEA"/>
<stop offset="1" stop-color="#71FFD4" stop-opacity="0.2"/>
</linearGradient>
<radialGradient id="paint16_radial_205_237" cx="0" cy="0" r="1" gradientUnits="userSpaceOnUse" gradientTransform="translate(330.49 794.509) scale(216.974 216.279)">
<stop stop-color="#1EC4A6"/>
<stop offset="1" stop-color="#A9FFF0" stop-opacity="0"/>
</radialGradient>
<linearGradient id="paint17_linear_205_237" x1="210.916" y1="515.809" x2="252.306" y2="1036.43" gradientUnits="userSpaceOnUse">
<stop stop-color="#36F2DB"/>
<stop offset="1" stop-color="#36F2E7" stop-opacity="0"/>
</linearGradient>
<linearGradient id="paint18_linear_205_237" x1="414.672" y1="499.61" x2="456.062" y2="1020.23" gradientUnits="userSpaceOnUse">
<stop stop-color="#36F2E7"/>
<stop offset="1" stop-color="#36F2D0" stop-opacity="0"/>
</linearGradient>
<linearGradient id="paint19_linear_205_237" x1="430.85" y1="498.323" x2="472.24" y2="1018.95" gradientUnits="userSpaceOnUse">
<stop stop-color="#36F2E7"/>
<stop offset="1" stop-color="#36F2D0" stop-opacity="0"/>
</linearGradient>
<linearGradient id="paint20_linear_205_237" x1="303.618" y1="508.439" x2="345.008" y2="1029.06" gradientUnits="userSpaceOnUse">
<stop stop-color="#36F2F2"/>
<stop offset="1" stop-color="#36F2C5" stop-opacity="0"/>
</linearGradient>
<linearGradient id="paint21_linear_205_237" x1="373.928" y1="502.848" x2="415.317" y2="1023.47" gradientUnits="userSpaceOnUse">
<stop stop-color="#36F2E7"/>
<stop offset="1" stop-color="#36E7F2" stop-opacity="0"/>
</linearGradient>
<linearGradient id="paint22_linear_205_237" x1="270.211" y1="511.094" x2="311.601" y2="1031.72" gradientUnits="userSpaceOnUse">
<stop stop-color="#36F2BA"/>
<stop offset="1" stop-color="#36D0F2" stop-opacity="0"/>
</linearGradient>
<linearGradient id="paint23_linear_205_237" x1="302.62" y1="1029.19" x2="329.683" y2="781.646" gradientUnits="userSpaceOnUse">
<stop stop-color="#00D8B1"/>
<stop offset="1" stop-color="#09BDB2"/>
</linearGradient>
<linearGradient id="paint24_linear_205_237" x1="320.931" y1="1018.55" x2="351.178" y2="759.823" gradientUnits="userSpaceOnUse">
<stop stop-color="#05B192"/>
<stop offset="1" stop-color="#00D797" stop-opacity="0.3"/>
</linearGradient>
<linearGradient id="paint25_linear_205_237" x1="462.095" y1="514.172" x2="348.39" y2="739.114" gradientUnits="userSpaceOnUse">
<stop stop-color="#B5FFCA"/>
<stop offset="1" stop-color="#B3F6FF" stop-opacity="0"/>
</linearGradient>
<radialGradient id="paint26_radial_205_237" cx="0" cy="0" r="1" gradientUnits="userSpaceOnUse" gradientTransform="translate(1629 1154) scale(155.84 155.958)">
<stop stop-color="#90DDEF"/>
<stop offset="1" stop-color="#A6D6F9" stop-opacity="0"/>
</radialGradient>
<linearGradient id="paint27_linear_205_237" x1="1632.63" y1="1327.6" x2="1523.3" y2="1049.82" gradientUnits="userSpaceOnUse">
<stop stop-color="#31A67C"/>
<stop offset="1" stop-color="#31B1A9" stop-opacity="0.2"/>
</linearGradient>
<linearGradient id="paint28_linear_205_237" x1="1600.94" y1="1340.08" x2="1491.6" y2="1062.3" gradientUnits="userSpaceOnUse">
<stop stop-color="#31A691"/>
<stop offset="1" stop-color="#31B1A9" stop-opacity="0.2"/>
</linearGradient>
<linearGradient id="paint29_linear_205_237" x1="1675.94" y1="1310.56" x2="1566.6" y2="1032.78" gradientUnits="userSpaceOnUse">
<stop stop-color="#31A68A"/>
<stop offset="1" stop-color="#31B1B1" stop-opacity="0.2"/>
</linearGradient>
<linearGradient id="paint30_linear_205_237" x1="1740.81" y1="1285.02" x2="1631.48" y2="1007.24" gradientUnits="userSpaceOnUse">
<stop stop-color="#31A691"/>
<stop offset="1" stop-color="#7ADED8" stop-opacity="0.2"/>
</linearGradient>
<linearGradient id="paint31_linear_205_237" x1="1652.6" y1="1319.74" x2="1543.27" y2="1041.96" gradientUnits="userSpaceOnUse">
<stop stop-color="#31A698"/>
<stop offset="1" stop-color="#31B19A" stop-opacity="0.2"/>
</linearGradient>
<linearGradient id="paint32_linear_205_237" x1="1745.2" y1="1283.3" x2="1635.87" y2="1005.51" gradientUnits="userSpaceOnUse">
<stop stop-color="#31A683"/>
<stop offset="1" stop-color="#31B192" stop-opacity="0.2"/>
</linearGradient>
<linearGradient id="paint33_linear_205_237" x1="1702.18" y1="1300.23" x2="1592.84" y2="1022.45" gradientUnits="userSpaceOnUse">
<stop stop-color="#31A6A6"/>
<stop offset="1" stop-color="#31B1B1" stop-opacity="0.2"/>
</linearGradient>
<linearGradient id="paint34_linear_205_237" x1="1687.75" y1="1305.91" x2="1578.42" y2="1028.13" gradientUnits="userSpaceOnUse">
<stop stop-color="#31A691"/>
<stop offset="1" stop-color="#31B19A" stop-opacity="0.2"/>
</linearGradient>
<linearGradient id="paint35_linear_205_237" x1="1598.65" y1="1290.07" x2="1637.6" y2="1098.29" gradientUnits="userSpaceOnUse">
<stop stop-color="#6D31A3"/>
<stop offset="0.0001" stop-color="#318EA3"/>
<stop offset="1" stop-color="#42B8B1" stop-opacity="0.3"/>
</linearGradient>
<linearGradient id="paint36_linear_205_237" x1="1640.01" y1="1318.12" x2="1625.27" y2="1184.81" gradientUnits="userSpaceOnUse">
<stop stop-color="#1A93A3"/>
<stop offset="1" stop-color="#2EA3A3" stop-opacity="0.1"/>
</linearGradient>
<linearGradient id="paint37_linear_205_237" x1="1791.69" y1="939.023" x2="1645.96" y2="1117.95" gradientUnits="userSpaceOnUse">
<stop stop-color="#A4F6F6"/>
<stop offset="1" stop-color="#B5F4F9" stop-opacity="0"/>
</linearGradient>
<radialGradient id="paint38_radial_205_237" cx="0" cy="0" r="1" gradientUnits="userSpaceOnUse" gradientTransform="translate(148.005 1762.99) scale(503.364 503.785)">
<stop stop-color="#77E5C4"/>
<stop offset="1" stop-color="#95F6F0" stop-opacity="0"/>
</radialGradient>
<linearGradient id="paint39_linear_205_237" x1="-58.4241" y1="2261.34" x2="301.144" y2="1271.53" gradientUnits="userSpaceOnUse">
<stop stop-color="#13867F"/>
<stop offset="1" stop-color="#139B83" stop-opacity="0.1"/>
</linearGradient>
<linearGradient id="paint40_linear_205_237" x1="-111.177" y1="2242.19" x2="248.394" y2="1252.36" gradientUnits="userSpaceOnUse">
<stop stop-color="#13867F"/>
<stop offset="1" stop-color="#139B93" stop-opacity="0.1"/>
</linearGradient>
<linearGradient id="paint41_linear_205_237" x1="-62.094" y1="2260" x2="297.471" y2="1270.19" gradientUnits="userSpaceOnUse">
<stop stop-color="#138671"/>
<stop offset="1" stop-color="#139B8B" stop-opacity="0.1"/>
</linearGradient>
<linearGradient id="paint42_linear_205_237" x1="-44.1271" y1="2266.54" x2="315.442" y2="1276.72" gradientUnits="userSpaceOnUse">
<stop stop-color="#13867F"/>
<stop offset="1" stop-color="#139B83" stop-opacity="0.1"/>
</linearGradient>
<linearGradient id="paint43_linear_205_237" x1="-35.9621" y1="2269.51" x2="323.606" y2="1279.69" gradientUnits="userSpaceOnUse">
<stop stop-color="#138664"/>
<stop offset="1" stop-color="#139B9B" stop-opacity="0.1"/>
</linearGradient>
<linearGradient id="paint44_linear_205_237" x1="-274.828" y1="2182.73" x2="84.7399" y2="1192.91" gradientUnits="userSpaceOnUse">
<stop stop-color="#13867F"/>
<stop offset="1" stop-color="#139B8B" stop-opacity="0.1"/>
</linearGradient>
<linearGradient id="paint45_linear_205_237" x1="78.5718" y1="2311.11" x2="438.14" y2="1321.29" gradientUnits="userSpaceOnUse">
<stop stop-color="#138671"/>
<stop offset="1" stop-color="#139B8B" stop-opacity="0.1"/>
</linearGradient>
<linearGradient id="paint46_linear_205_237" x1="147.709" y1="2336.23" x2="507.278" y2="1346.41" gradientUnits="userSpaceOnUse">
<stop stop-color="#138664"/>
<stop offset="1" stop-color="#139B93" stop-opacity="0.1"/>
</linearGradient>
<linearGradient id="paint47_linear_205_237" x1="194.257" y1="2135.21" x2="-25.8938" y2="1332.33" gradientUnits="userSpaceOnUse">
<stop stop-color="#127F7F"/>
<stop offset="1" stop-color="#3DD5C3" stop-opacity="0.1"/>
</linearGradient>
<linearGradient id="paint48_linear_205_237" x1="215.404" y1="2202.37" x2="148.172" y2="1811.38" gradientUnits="userSpaceOnUse">
<stop stop-color="#126D57"/>
<stop offset="1" stop-color="#126A6A" stop-opacity="0"/>
</linearGradient>
<linearGradient id="paint49_linear_205_237" x1="516.579" y1="1129.49" x2="98.3789" y2="1796.59" gradientUnits="userSpaceOnUse">
<stop stop-color="#AEFFF0"/>
<stop offset="1" stop-color="#FFD5AE" stop-opacity="0"/>
</linearGradient>
<radialGradient id="paint50_radial_205_237" cx="0" cy="0" r="1" gradientUnits="userSpaceOnUse" gradientTransform="translate(1679.63 2414.55) scale(401.91 400.847)">
<stop stop-color="#63E7F9"/>
<stop offset="1" stop-color="#9CFFE7" stop-opacity="0"/>
</radialGradient>
<linearGradient id="paint51_linear_205_237" x1="1369.93" y1="2841.07" x2="1497" y2="1949.2" gradientUnits="userSpaceOnUse">
<stop stop-color="#2BBD9A"/>
<stop offset="1" stop-color="#2BE2C1" stop-opacity="0"/>
</linearGradient>
<linearGradient id="paint52_linear_205_237" x1="1742.63" y1="2894.18" x2="1869.71" y2="2002.31" gradientUnits="userSpaceOnUse">
<stop stop-color="#2BBDA3"/>
<stop offset="1" stop-color="#2BE2AB" stop-opacity="0"/>
</linearGradient>
<linearGradient id="paint53_linear_205_237" x1="1502.31" y1="2859.94" x2="1629.39" y2="1968.07" gradientUnits="userSpaceOnUse">
<stop stop-color="#2BBD9A"/>
<stop offset="1" stop-color="#2BE295" stop-opacity="0"/>
</linearGradient>
<linearGradient id="paint54_linear_205_237" x1="1772.98" y1="2898.5" x2="1900.05" y2="2006.63" gradientUnits="userSpaceOnUse">
<stop stop-color="#2BBD9A"/>
<stop offset="1" stop-color="#2BE2AB" stop-opacity="0"/>
</linearGradient>
<linearGradient id="paint55_linear_205_237" x1="1813.11" y1="2904.22" x2="1940.18" y2="2012.35" gradientUnits="userSpaceOnUse">
<stop stop-color="#2BBD91"/>
<stop offset="1" stop-color="#2BE2AB" stop-opacity="0"/>
</linearGradient>
<linearGradient id="paint56_linear_205_237" x1="1559.02" y1="2868.02" x2="1686.1" y2="1976.14" gradientUnits="userSpaceOnUse">
<stop stop-color="#2BBD91"/>
<stop offset="1" stop-color="#2BE2B6" stop-opacity="0"/>
</linearGradient>
<linearGradient id="paint57_linear_205_237" x1="1520.31" y1="2862.5" x2="1647.38" y2="1970.62" gradientUnits="userSpaceOnUse">
<stop stop-color="#2BBD88"/>
<stop offset="1" stop-color="#2BE2C1" stop-opacity="0"/>
</linearGradient>
<linearGradient id="paint58_linear_205_237" x1="1591.52" y1="2872.65" x2="1718.6" y2="1980.78" gradientUnits="userSpaceOnUse">
<stop stop-color="#2BB4BD"/>
<stop offset="1" stop-color="#2BE2B6" stop-opacity="0"/>
</linearGradient>
<linearGradient id="paint59_linear_205_237" x1="1568.17" y1="2741.03" x2="1620.61" y2="2435.62" gradientUnits="userSpaceOnUse">
<stop stop-color="#2BBD9A"/>
<stop offset="1" stop-color="#2BE2C1" stop-opacity="0"/>
</linearGradient>
<linearGradient id="paint60_linear_205_237" x1="1747.94" y1="2773.99" x2="1686.35" y2="2528.48" gradientUnits="userSpaceOnUse">
<stop stop-color="#2BA690"/>
<stop offset="1" stop-color="#2BAE77" stop-opacity="0"/>
</linearGradient>
<linearGradient id="paint61_linear_205_237" x1="1477.6" y1="2134.62" x2="1477.02" y2="2135.43" gradientUnits="userSpaceOnUse">
<stop stop-color="#D1FAEE"/>
<stop offset="1" stop-color="#DDF9F6" stop-opacity="0"/>
</linearGradient>
<linearGradient id="paint62_linear_205_237" x1="1949.95" y1="2014.28" x2="1800.03" y2="2225.1" gradientUnits="userSpaceOnUse">
<stop stop-color="#D1FAEB"/>
<stop offset="1" stop-color="#DDF9F2" stop-opacity="0"/>
</linearGradient>
<linearGradient id="paint63_linear_205_237" x1="1636.48" y1="2624.99" x2="1719.2" y2="2331.64" gradientUnits="userSpaceOnUse">
<stop stop-color="#B0FAE4"/>
<stop offset="1" stop-color="#68F2EA"/>
</linearGradient>
<linearGradient id="paint64_linear_205_237" x1="1630.52" y1="2623.31" x2="1713.25" y2="2329.96" gradientUnits="userSpaceOnUse">
<stop stop-color="#B0FAE4"/>
<stop offset="1" stop-color="#68F2D9"/>
</linearGradient>
<radialGradient id="paint65_radial_205_237" cx="0" cy="0" r="1" gradientUnits="userSpaceOnUse" gradientTransform="translate(370.497 3109.99) scale(272.279 272.791)">
<stop stop-color="#C7F1F6"/>
<stop offset="1" stop-color="#D3F4F9" stop-opacity="0"/>
</radialGradient>
<linearGradient id="paint66_linear_205_237" x1="493.423" y1="3449.59" x2="312.08" y2="2950.43" gradientUnits="userSpaceOnUse">
<stop stop-color="#4A3E9E"/>
<stop offset="1" stop-color="#4AE09E" stop-opacity="0.5"/>
</linearGradient>
<linearGradient id="paint67_linear_205_237" x1="379.646" y1="3401.64" x2="346.576" y2="3024.39" gradientUnits="userSpaceOnUse">
<stop stop-color="#3D3789"/>
<stop offset="1" stop-color="#3DCC5E" stop-opacity="0.2"/>
</linearGradient>
<linearGradient id="paint68_linear_205_237" x1="363.081" y1="3257.19" x2="375.836" y2="3029.43" gradientUnits="userSpaceOnUse">
<stop stop-color="#83ECEC"/>
<stop offset="1" stop-color="#8EE2D3" stop-opacity="0.3"/>
</linearGradient>
<linearGradient id="paint69_linear_205_237" x1="357.992" y1="2832.58" x2="358.694" y2="2966.45" gradientUnits="userSpaceOnUse">
<stop stop-color="#C7F1F6"/>
<stop offset="1" stop-color="#D3F4F9" stop-opacity="0"/>
</linearGradient>
<clipPath id="clip0_205_237">
<rect width="1920" height="3500" fill="white"/>
</clipPath>
<clipPath id="clip1_205_237">
<rect width="374" height="374" fill="white" transform="translate(-65 -6)"/>
</clipPath>
<clipPath id="clip2_205_237">
<rect width="474" height="476" fill="white" transform="translate(1278 270)"/>
</clipPath>
<clipPath id="clip3_205_237">
<rect width="503" height="501" fill="white" transform="translate(79 544)"/>
</clipPath>
<clipPath id="clip4_205_237">
<rect width="364" height="364" fill="white" transform="translate(1447 972)"/>
</clipPath>
<clipPath id="clip5_205_237">
<rect width="1148" height="1148" fill="white" transform="translate(-426 1189)"/>
</clipPath>
<clipPath id="clip6_205_237">
<rect width="1099" height="863" fill="white" transform="translate(1122 1983)"/>
</clipPath>
<clipPath id="clip7_205_237">
<rect width="805" height="578" fill="white" transform="translate(-32 2821)"/>
</clipPath>
</defs>
</svg>
